<svg version="1.1" id="Layer_1" xmlns="http://www.w3.org/2000/svg" xmlns:xlink="http://www.w3.org/1999/xlink" x="0px" y="0px"
	 width="100%" viewBox="0 0 512 512" enable-background="new 0 0 512 512" xml:space="preserve">
<path fill="#000000" opacity="1.000000" stroke="none" 
	d="
M291.000000,513.000000 
	C194.023544,513.000000 97.547081,513.000000 1.035313,513.000000 
	C1.035313,342.398529 1.035313,171.797028 1.035313,1.097768 
	C171.559799,1.097768 342.119690,1.097768 512.839783,1.097768 
	C512.839783,171.666550 512.839783,342.333252 512.839783,513.000000 
	C439.130341,513.000000 365.315155,513.000000 291.000000,513.000000 
M265.441284,52.093491 
	C264.327332,49.580391 263.388458,46.967369 262.032806,44.592205 
	C261.237946,43.199543 259.846954,41.253326 258.607574,41.163464 
	C253.344849,40.781887 248.038528,41.001465 242.918533,41.001465 
	C240.715988,47.992661 237.716827,50.939941 232.780258,50.969128 
	C226.299103,51.007450 223.456512,46.767643 221.906830,40.843731 
	C215.325165,41.537106 208.898605,42.214142 202.498276,42.888412 
	C203.072266,51.043812 200.846512,54.261044 193.804092,56.516323 
	C188.062042,58.355171 182.364426,60.332764 176.744583,62.216167 
	C180.441940,70.223106 183.762573,77.414230 187.172516,84.798752 
	C188.795151,84.379745 190.541199,83.909798 192.296738,83.478485 
	C211.536179,78.751617 227.967911,85.305840 236.879120,101.254768 
	C240.596100,107.907310 239.496475,113.869820 233.999008,116.871338 
	C228.600189,119.818970 223.244095,117.926041 219.587784,111.359520 
	C215.502228,104.022110 209.308746,101.210373 201.244751,102.260170 
	C198.297989,102.643784 195.259277,103.265511 192.592636,104.494751 
	C191.047043,105.207222 189.646866,107.170601 189.068115,108.872627 
	C187.206436,114.347580 186.189697,120.137344 184.034378,125.477692 
	C181.570786,131.581924 175.990845,133.605774 170.622543,131.184052 
	C165.235611,128.753952 164.015366,123.699966 165.765045,117.236473 
	C167.471924,110.931168 168.991180,104.232689 168.674744,97.801201 
	C168.183258,87.812828 163.319977,79.030174 157.586716,70.934021 
	C156.844711,69.886238 154.747940,69.016548 153.490265,69.242393 
	C145.510834,70.675346 137.329865,71.680656 129.721207,74.297699 
	C121.289436,77.197861 114.950089,83.080688 112.280205,92.192833 
	C110.832642,97.133247 107.186966,99.440369 102.052948,99.150261 
	C99.899803,99.028587 97.764267,98.594101 95.620956,98.300102 
	C78.802986,95.993195 66.693245,103.488319 63.597023,119.409103 
	C62.148819,126.855789 58.514091,130.464767 51.793304,133.038315 
	C38.784550,138.019669 29.299297,146.987915 26.631100,161.103973 
	C25.357950,167.839554 24.802574,175.271301 26.307737,181.841156 
	C28.607250,191.878250 28.854939,200.554031 22.700394,209.569733 
	C18.888126,215.154282 20.603230,220.591599 25.782520,224.084885 
	C31.108263,227.676971 32.411598,232.205429 31.891642,238.206253 
	C30.786999,250.954987 35.884880,261.156586 46.477901,268.008606 
	C52.690395,272.027100 59.500874,275.594849 66.536079,277.764465 
	C79.315475,281.705536 92.184891,285.710358 106.083855,282.190155 
	C113.101036,280.412933 118.186150,286.402008 117.434921,294.119873 
	C116.046410,308.385040 120.708305,320.415894 131.257492,329.959747 
	C143.649139,341.170471 158.822189,346.007843 175.115219,346.830902 
	C194.479950,347.809113 213.448792,345.217621 232.453140,340.721832 
	C252.951904,335.872528 273.998657,333.268188 294.871368,330.115112 
	C301.032135,329.184448 305.543243,333.390533 306.025940,338.954712 
	C306.536530,344.840576 302.620880,349.254883 296.310150,350.001068 
	C287.880066,350.997864 279.407043,351.752106 271.041901,353.146973 
	C259.942200,354.997803 248.928833,357.366425 236.935104,359.695770 
	C262.924713,389.641357 271.427216,425.848419 279.971222,462.175262 
	C289.075134,460.628937 297.537659,459.191589 304.621887,457.988342 
	C304.621887,446.032349 304.188080,434.741394 304.742767,423.499176 
	C305.307709,412.048431 311.304749,408.874298 321.944366,413.403778 
	C342.955109,422.348572 364.613434,425.090179 386.819183,418.908142 
	C402.829041,414.451050 416.134766,406.105988 422.537323,389.739685 
	C426.710724,379.071716 426.147552,377.815216 416.401031,371.827240 
	C403.380280,363.827698 389.244751,358.613312 374.488831,354.881256 
	C368.301636,353.316376 364.933197,348.014374 366.358124,342.590179 
	C367.843445,336.935974 373.087738,333.855713 379.210327,335.375061 
	C399.731140,340.467285 419.017456,348.304260 436.199951,360.931122 
	C437.918365,362.194000 440.804199,362.731049 442.960693,362.396454 
	C458.158630,360.038361 468.796631,350.698395 475.842346,337.905945 
	C489.950958,312.289673 495.449738,284.668640 491.363251,255.545364 
	C489.404846,241.588364 483.176331,229.556976 472.063263,220.529556 
	C470.547363,219.298126 467.830048,218.654907 465.883820,218.989380 
	C453.820343,221.062469 447.278687,227.953140 444.923950,240.478790 
	C443.746094,246.744141 438.910553,250.680771 433.451355,249.818619 
	C427.731354,248.915283 424.060120,244.105255 425.137939,237.710556 
	C425.985565,232.681168 427.246613,227.517349 429.452087,222.959076 
	C436.119507,209.179062 447.913055,201.849075 462.565033,199.133804 
	C466.986328,198.314468 468.209320,196.545715 468.252594,192.362030 
	C468.346802,183.257248 464.793457,176.164810 457.328552,171.163040 
	C453.682251,168.719849 451.988037,165.702728 451.599182,161.316498 
	C451.332245,158.305466 450.468445,154.819122 448.627411,152.558350 
	C431.998260,132.138062 400.889648,135.301773 390.637878,154.319824 
	C387.433014,160.265182 381.310852,161.891464 376.273163,158.844620 
	C371.382812,155.886887 370.128082,150.152634 373.239868,144.411270 
	C379.229523,133.360107 388.252045,125.785027 400.198059,122.022949 
	C405.851593,120.242523 411.785095,119.351288 417.910187,117.986229 
	C415.551514,103.639809 407.114136,93.941216 393.845551,88.201591 
	C382.313080,83.212967 370.100708,81.825943 357.676605,82.363899 
	C351.767090,82.619781 347.770172,80.603111 345.575562,74.957657 
	C343.458801,69.512451 339.362366,65.676338 333.863098,64.153717 
	C328.798462,62.751438 323.207458,61.110977 318.235809,61.929352 
	C305.410400,64.040520 293.570435,61.255173 281.713013,57.209793 
	C279.521576,56.462147 277.150543,56.255753 274.923584,55.593750 
	C271.922852,54.701702 268.981415,53.610111 265.441284,52.093491 
z"/>
<path fill="#FD8E8C" opacity="1.000000" stroke="none" 
	d="
M265.727905,52.348824 
	C268.981415,53.610111 271.922852,54.701702 274.923584,55.593750 
	C277.150543,56.255753 279.521576,56.462147 281.713013,57.209793 
	C293.570435,61.255173 305.410400,64.040520 318.235809,61.929352 
	C323.207458,61.110977 328.798462,62.751438 333.863098,64.153717 
	C339.362366,65.676338 343.458801,69.512451 345.575562,74.957657 
	C347.770172,80.603111 351.767090,82.619781 357.676605,82.363899 
	C370.100708,81.825943 382.313080,83.212967 393.845551,88.201591 
	C407.114136,93.941216 415.551514,103.639809 417.910187,117.986229 
	C411.785095,119.351288 405.851593,120.242523 400.198059,122.022949 
	C388.252045,125.785027 379.229523,133.360107 373.239868,144.411270 
	C370.128082,150.152634 371.382812,155.886887 376.273163,158.844620 
	C381.310852,161.891464 387.433014,160.265182 390.637878,154.319824 
	C400.889648,135.301773 431.998260,132.138062 448.627411,152.558350 
	C450.468445,154.819122 451.332245,158.305466 451.599182,161.316498 
	C451.988037,165.702728 453.682251,168.719849 457.328552,171.163040 
	C464.793457,176.164810 468.346802,183.257248 468.252594,192.362030 
	C468.209320,196.545715 466.986328,198.314468 462.565033,199.133804 
	C447.913055,201.849075 436.119507,209.179062 429.452087,222.959076 
	C427.246613,227.517349 425.985565,232.681168 425.137939,237.710556 
	C424.060120,244.105255 427.731354,248.915283 433.451355,249.818619 
	C438.910553,250.680771 443.746094,246.744141 444.923950,240.478790 
	C447.278687,227.953140 453.820343,221.062469 465.883820,218.989380 
	C467.830048,218.654907 470.547363,219.298126 472.063263,220.529556 
	C483.176331,229.556976 489.404846,241.588364 491.363251,255.545364 
	C495.449738,284.668640 489.950958,312.289673 475.842346,337.905945 
	C468.796631,350.698395 458.158630,360.038361 442.960693,362.396454 
	C440.804199,362.731049 437.918365,362.194000 436.199951,360.931122 
	C419.017456,348.304260 399.731140,340.467285 379.210327,335.375061 
	C373.087738,333.855713 367.843445,336.935974 366.358124,342.590179 
	C364.933197,348.014374 368.301636,353.316376 374.488831,354.881256 
	C389.244751,358.613312 403.380280,363.827698 416.401031,371.827240 
	C426.147552,377.815216 426.710724,379.071716 422.537323,389.739685 
	C416.134766,406.105988 402.829041,414.451050 386.819183,418.908142 
	C364.613434,425.090179 342.955109,422.348572 321.944366,413.403778 
	C311.304749,408.874298 305.307709,412.048431 304.742767,423.499176 
	C304.188080,434.741394 304.621887,446.032349 304.621887,457.988342 
	C297.537659,459.191589 289.075134,460.628937 279.971222,462.175262 
	C271.427216,425.848419 262.924713,389.641357 236.935104,359.695770 
	C248.928833,357.366425 259.942200,354.997803 271.041901,353.146973 
	C279.407043,351.752106 287.880066,350.997864 296.310150,350.001068 
	C302.620880,349.254883 306.536530,344.840576 306.025940,338.954712 
	C305.543243,333.390533 301.032135,329.184448 294.871368,330.115112 
	C273.998657,333.268188 252.951904,335.872528 232.453140,340.721832 
	C213.448792,345.217621 194.479950,347.809113 175.115219,346.830902 
	C158.822189,346.007843 143.649139,341.170471 131.257492,329.959747 
	C120.708305,320.415894 116.046410,308.385040 117.434921,294.119873 
	C118.186150,286.402008 113.101036,280.412933 106.083855,282.190155 
	C92.184891,285.710358 79.315475,281.705536 66.536079,277.764465 
	C59.500874,275.594849 52.690395,272.027100 46.477901,268.008606 
	C35.884880,261.156586 30.786999,250.954987 31.891642,238.206253 
	C32.411598,232.205429 31.108263,227.676971 25.782520,224.084885 
	C20.603230,220.591599 18.888126,215.154282 22.700394,209.569733 
	C28.854939,200.554031 28.607250,191.878250 26.307737,181.841156 
	C24.802574,175.271301 25.357950,167.839554 26.631100,161.103973 
	C29.299297,146.987915 38.784550,138.019669 51.793304,133.038315 
	C58.514091,130.464767 62.148819,126.855789 63.597023,119.409103 
	C66.693245,103.488319 78.802986,95.993195 95.620956,98.300102 
	C97.764267,98.594101 99.899803,99.028587 102.052948,99.150261 
	C107.186966,99.440369 110.832642,97.133247 112.280205,92.192833 
	C114.950089,83.080688 121.289436,77.197861 129.721207,74.297699 
	C137.329865,71.680656 145.510834,70.675346 153.490265,69.242393 
	C154.747940,69.016548 156.844711,69.886238 157.586716,70.934021 
	C163.319977,79.030174 168.183258,87.812828 168.674744,97.801201 
	C168.991180,104.232689 167.471924,110.931168 165.765045,117.236473 
	C164.015366,123.699966 165.235611,128.753952 170.622543,131.184052 
	C175.990845,133.605774 181.570786,131.581924 184.034378,125.477692 
	C186.189697,120.137344 187.206436,114.347580 189.068115,108.872627 
	C189.646866,107.170601 191.047043,105.207222 192.592636,104.494751 
	C195.259277,103.265511 198.297989,102.643784 201.244751,102.260170 
	C209.308746,101.210373 215.502228,104.022110 219.587784,111.359520 
	C223.244095,117.926041 228.600189,119.818970 233.999008,116.871338 
	C239.496475,113.869820 240.596100,107.907310 236.879120,101.254768 
	C227.967911,85.305840 211.536179,78.751617 192.296738,83.478485 
	C190.541199,83.909798 188.795151,84.379745 187.172516,84.798752 
	C183.762573,77.414230 180.441940,70.223106 176.744583,62.216167 
	C182.364426,60.332764 188.062042,58.355171 193.804092,56.516323 
	C200.846512,54.261044 203.072266,51.043812 202.498276,42.888412 
	C208.898605,42.214142 215.325165,41.537106 221.906830,40.843731 
	C223.456512,46.767643 226.299103,51.007450 232.780258,50.969128 
	C237.716827,50.939941 240.715988,47.992661 242.918533,41.001465 
	C248.038528,41.001465 253.344849,40.781887 258.607574,41.163464 
	C259.846954,41.253326 261.237946,43.199543 262.032806,44.592205 
	C263.388458,46.967369 264.327332,49.580391 265.727905,52.348824 
M167.648819,235.864700 
	C167.711365,231.877869 168.154266,227.851669 167.746490,223.913528 
	C167.148331,218.136948 162.632645,214.600830 157.110825,214.925888 
	C151.641541,215.247833 147.540756,219.417191 147.979095,225.289536 
	C148.802872,236.325714 143.856598,244.434219 136.134674,251.527954 
	C133.775604,253.695114 131.803680,254.243256 128.669373,252.968094 
	C118.741653,248.929077 108.348404,247.993652 97.796112,249.784576 
	C92.047241,250.760269 88.508759,255.591248 89.265129,260.791687 
	C90.081741,266.406433 94.708580,269.885468 100.731903,269.490875 
	C103.717323,269.295288 106.721512,268.995941 109.699005,269.134583 
	C126.317261,269.908203 134.945343,278.321106 136.241882,294.868988 
	C136.410828,297.025238 136.384827,299.200562 136.630112,301.346375 
	C137.264954,306.899841 141.318420,310.743530 146.459244,310.793671 
	C151.563446,310.843475 155.809509,306.991730 156.438126,301.498230 
	C156.682098,299.366211 156.529999,297.178558 156.443329,295.020844 
	C156.050201,285.232574 153.501877,276.057190 148.150375,267.740875 
	C157.877136,259.164795 165.213440,249.506027 167.648819,235.864700 
M447.677246,274.242157 
	C431.287811,283.646667 418.601990,281.373016 408.464203,267.200043 
	C407.497101,265.848022 406.700226,264.365692 405.661041,263.075409 
	C402.181122,258.754669 396.821564,257.893860 392.298431,260.843689 
	C388.062866,263.605957 386.402374,268.913025 388.933044,273.538483 
	C390.909546,277.150970 393.160370,280.872803 396.142151,283.620514 
	C401.925049,288.949493 408.307953,293.627350 414.986359,299.013885 
	C414.986359,298.273163 415.032654,298.613525 414.977264,298.936432 
	C414.836914,299.754608 414.635712,300.562134 414.485443,301.378845 
	C411.337402,318.489014 414.124176,333.869904 427.753174,345.947021 
	C432.434509,350.095276 438.095886,349.876007 442.047668,345.733734 
	C445.995880,341.595215 446.069977,335.728607 441.486969,331.507965 
	C433.071014,323.757507 432.413940,314.289673 434.332550,303.971619 
	C434.885742,300.996643 436.537659,300.019714 439.366913,298.914703 
	C447.493073,295.740875 455.533173,292.165222 463.142914,287.916199 
	C468.017059,285.194641 468.730164,278.681183 465.771301,274.301849 
	C462.735413,269.808655 457.108887,268.606323 452.095245,271.433960 
	C450.794739,272.167419 449.588226,273.067505 447.677246,274.242157 
M271.078461,228.612396 
	C271.927612,225.907135 273.582672,226.673523 275.707428,227.100739 
	C284.454681,228.859482 293.221069,230.796448 302.078369,231.642456 
	C308.434021,232.249542 312.889313,227.516800 312.986511,221.836899 
	C313.086243,216.009964 308.971222,212.089203 302.381897,211.743500 
	C301.384827,211.691177 300.385315,211.687958 299.387604,211.645905 
	C285.952820,211.079483 273.883362,206.763901 265.864166,195.730255 
	C260.898010,188.897308 257.735229,180.667130 254.344757,172.812988 
	C252.710052,169.026154 250.919312,165.964005 246.808289,164.986542 
	C239.349487,163.213150 233.166458,169.203873 234.754623,176.910599 
	C237.465439,190.065002 243.498032,201.656754 252.689606,211.412720 
	C255.382828,214.271332 255.654907,216.968689 253.135773,219.064911 
	C248.238571,223.139999 243.025543,226.960632 237.509476,230.132034 
	C231.886078,233.365158 229.193085,238.220108 231.291931,243.631699 
	C233.317764,248.855042 239.068893,251.181671 245.035004,248.907242 
	C255.527191,244.907379 264.474670,238.805023 271.078461,228.612396 
M94.765823,150.975647 
	C94.521759,149.837982 94.268166,148.702286 94.035149,147.562363 
	C92.321754,139.180206 87.820534,135.239059 81.512230,136.603165 
	C74.988945,138.013763 72.479141,143.187576 74.293251,151.500000 
	C74.399467,151.986664 74.596802,152.454178 74.693405,152.942139 
	C77.715469,168.207443 71.665627,179.364883 57.210564,185.199600 
	C56.594757,185.448196 55.976265,185.690933 55.367157,185.955154 
	C49.800842,188.369675 47.332813,193.655487 49.295876,198.949005 
	C51.127354,203.887695 56.545490,206.656281 62.017818,204.734650 
	C66.364525,203.208282 70.576340,201.073166 74.507973,198.655319 
	C78.119064,196.434586 81.275810,193.475052 84.541740,190.912399 
	C101.801605,201.990448 118.602516,199.283386 135.124527,189.937073 
	C140.197372,187.067444 141.556198,181.281494 138.966629,176.540741 
	C136.266068,171.596771 130.792709,170.061188 125.231918,172.623260 
	C122.219879,174.011047 119.246925,175.567688 116.103790,176.569565 
	C109.365982,178.717194 102.614059,179.063599 96.594688,174.557693 
	C95.452103,173.702377 94.621498,171.698853 94.596855,170.209412 
	C94.495552,164.087006 94.760925,157.958557 94.765823,150.975647 
M361.749207,201.816132 
	C356.522247,191.355270 349.063477,182.762390 339.777863,175.731964 
	C332.205353,169.998596 326.379578,169.864929 322.281006,175.219727 
	C318.690948,179.910126 319.787323,186.432800 327.414062,191.866165 
	C341.723694,202.060455 350.021667,216.002838 346.795441,234.245361 
	C345.550476,241.285019 342.107880,247.970703 339.383820,254.703293 
	C337.132080,260.268585 338.648590,265.844299 343.558075,268.432404 
	C348.386353,270.977692 354.052338,269.509003 356.912659,264.445587 
	C368.110535,244.623001 371.920715,224.115051 361.749207,201.816132 
M274.165680,302.700409 
	C279.108337,296.923767 284.439636,291.427246 288.869446,285.280975 
	C292.352753,280.447968 290.567841,274.288513 285.876007,271.352356 
	C281.319702,268.501007 275.758484,269.729706 272.236603,274.390442 
	C271.637085,275.183807 271.126892,276.045074 270.582581,276.879639 
	C262.410889,289.409393 250.874283,295.394745 235.941910,294.131866 
	C231.029190,293.716400 226.169174,292.417297 221.346298,291.265778 
	C215.370529,289.839020 210.122223,292.216370 208.340637,297.442383 
	C206.539261,302.726410 209.040833,308.231323 214.830551,310.184875 
	C235.484177,317.153625 255.327133,316.505951 274.165680,302.700409 
M288.564392,99.797195 
	C300.795593,101.206284 306.435699,109.277893 309.481384,120.193703 
	C311.358459,126.921295 316.381805,130.009521 322.051331,128.363739 
	C327.904449,126.664650 330.563354,121.596779 328.844849,114.915169 
	C320.827606,83.743767 294.991730,75.690186 272.076874,80.775085 
	C265.781006,82.172165 262.699554,87.153023 264.004517,92.965630 
	C265.168030,98.148064 269.911011,100.965950 275.850006,100.322075 
	C279.791046,99.894814 283.775818,99.871307 288.564392,99.797195 
M332.451874,348.528046 
	C337.196625,350.004883 341.387604,349.220215 344.363647,345.041321 
	C346.897644,341.483154 346.977020,337.538147 344.630768,333.856812 
	C342.403046,330.361328 338.962982,328.703766 334.844299,329.366699 
	C330.331818,330.093048 327.335907,332.887726 326.465912,337.413422 
	C325.547882,342.189178 327.573669,345.759796 332.451874,348.528046 
z"/>
<path fill="#040202" opacity="1.000000" stroke="none" 
	d="
M167.539276,236.288391 
	C165.213440,249.506027 157.877136,259.164795 148.150375,267.740875 
	C153.501877,276.057190 156.050201,285.232574 156.443329,295.020844 
	C156.529999,297.178558 156.682098,299.366211 156.438126,301.498230 
	C155.809509,306.991730 151.563446,310.843475 146.459244,310.793671 
	C141.318420,310.743530 137.264954,306.899841 136.630112,301.346375 
	C136.384827,299.200562 136.410828,297.025238 136.241882,294.868988 
	C134.945343,278.321106 126.317261,269.908203 109.699005,269.134583 
	C106.721512,268.995941 103.717323,269.295288 100.731903,269.490875 
	C94.708580,269.885468 90.081741,266.406433 89.265129,260.791687 
	C88.508759,255.591248 92.047241,250.760269 97.796112,249.784576 
	C108.348404,247.993652 118.741653,248.929077 128.669373,252.968094 
	C131.803680,254.243256 133.775604,253.695114 136.134674,251.527954 
	C143.856598,244.434219 148.802872,236.325714 147.979095,225.289536 
	C147.540756,219.417191 151.641541,215.247833 157.110825,214.925888 
	C162.632645,214.600830 167.148331,218.136948 167.746490,223.913528 
	C168.154266,227.851669 167.711365,231.877869 167.539276,236.288391 
z"/>
<path fill="#030202" opacity="1.000000" stroke="none" 
	d="
M448.007904,274.066589 
	C449.588226,273.067505 450.794739,272.167419 452.095245,271.433960 
	C457.108887,268.606323 462.735413,269.808655 465.771301,274.301849 
	C468.730164,278.681183 468.017059,285.194641 463.142914,287.916199 
	C455.533173,292.165222 447.493073,295.740875 439.366913,298.914703 
	C436.537659,300.019714 434.885742,300.996643 434.332550,303.971619 
	C432.413940,314.289673 433.071014,323.757507 441.486969,331.507965 
	C446.069977,335.728607 445.995880,341.595215 442.047668,345.733734 
	C438.095886,349.876007 432.434509,350.095276 427.753174,345.947021 
	C414.124176,333.869904 411.337402,318.489014 414.485443,301.378845 
	C414.635712,300.562134 414.836914,299.754608 414.977264,298.936432 
	C415.032654,298.613525 414.986359,298.273163 414.986359,299.013885 
	C408.307953,293.627350 401.925049,288.949493 396.142151,283.620514 
	C393.160370,280.872803 390.909546,277.150970 388.933044,273.538483 
	C386.402374,268.913025 388.062866,263.605957 392.298431,260.843689 
	C396.821564,257.893860 402.181122,258.754669 405.661041,263.075409 
	C406.700226,264.365692 407.497101,265.848022 408.464203,267.200043 
	C418.601990,281.373016 431.287811,283.646667 448.007904,274.066589 
z"/>
<path fill="#040202" opacity="1.000000" stroke="none" 
	d="
M270.909607,228.926620 
	C264.474670,238.805023 255.527191,244.907379 245.035004,248.907242 
	C239.068893,251.181671 233.317764,248.855042 231.291931,243.631699 
	C229.193085,238.220108 231.886078,233.365158 237.509476,230.132034 
	C243.025543,226.960632 248.238571,223.139999 253.135773,219.064911 
	C255.654907,216.968689 255.382828,214.271332 252.689606,211.412720 
	C243.498032,201.656754 237.465439,190.065002 234.754623,176.910599 
	C233.166458,169.203873 239.349487,163.213150 246.808289,164.986542 
	C250.919312,165.964005 252.710052,169.026154 254.344757,172.812988 
	C257.735229,180.667130 260.898010,188.897308 265.864166,195.730255 
	C273.883362,206.763901 285.952820,211.079483 299.387604,211.645905 
	C300.385315,211.687958 301.384827,211.691177 302.381897,211.743500 
	C308.971222,212.089203 313.086243,216.009964 312.986511,221.836899 
	C312.889313,227.516800 308.434021,232.249542 302.078369,231.642456 
	C293.221069,230.796448 284.454681,228.859482 275.707428,227.100739 
	C273.582672,226.673523 271.927612,225.907135 270.909607,228.926620 
z"/>
<path fill="#030202" opacity="1.000000" stroke="none" 
	d="
M94.828629,151.403992 
	C94.760925,157.958557 94.495552,164.087006 94.596855,170.209412 
	C94.621498,171.698853 95.452103,173.702377 96.594688,174.557693 
	C102.614059,179.063599 109.365982,178.717194 116.103790,176.569565 
	C119.246925,175.567688 122.219879,174.011047 125.231918,172.623260 
	C130.792709,170.061188 136.266068,171.596771 138.966629,176.540741 
	C141.556198,181.281494 140.197372,187.067444 135.124527,189.937073 
	C118.602516,199.283386 101.801605,201.990448 84.541740,190.912399 
	C81.275810,193.475052 78.119064,196.434586 74.507973,198.655319 
	C70.576340,201.073166 66.364525,203.208282 62.017818,204.734650 
	C56.545490,206.656281 51.127354,203.887695 49.295876,198.949005 
	C47.332813,193.655487 49.800842,188.369675 55.367157,185.955154 
	C55.976265,185.690933 56.594757,185.448196 57.210564,185.199600 
	C71.665627,179.364883 77.715469,168.207443 74.693405,152.942139 
	C74.596802,152.454178 74.399467,151.986664 74.293251,151.500000 
	C72.479141,143.187576 74.988945,138.013763 81.512230,136.603165 
	C87.820534,135.239059 92.321754,139.180206 94.035149,147.562363 
	C94.268166,148.702286 94.521759,149.837982 94.828629,151.403992 
z"/>
<path fill="#040202" opacity="1.000000" stroke="none" 
	d="
M361.890869,202.165161 
	C371.920715,224.115051 368.110535,244.623001 356.912659,264.445587 
	C354.052338,269.509003 348.386353,270.977692 343.558075,268.432404 
	C338.648590,265.844299 337.132080,260.268585 339.383820,254.703293 
	C342.107880,247.970703 345.550476,241.285019 346.795441,234.245361 
	C350.021667,216.002838 341.723694,202.060455 327.414062,191.866165 
	C319.787323,186.432800 318.690948,179.910126 322.281006,175.219727 
	C326.379578,169.864929 332.205353,169.998596 339.777863,175.731964 
	C349.063477,182.762390 356.522247,191.355270 361.890869,202.165161 
z"/>
<path fill="#040202" opacity="1.000000" stroke="none" 
	d="
M273.873932,302.908844 
	C255.327133,316.505951 235.484177,317.153625 214.830551,310.184875 
	C209.040833,308.231323 206.539261,302.726410 208.340637,297.442383 
	C210.122223,292.216370 215.370529,289.839020 221.346298,291.265778 
	C226.169174,292.417297 231.029190,293.716400 235.941910,294.131866 
	C250.874283,295.394745 262.410889,289.409393 270.582581,276.879639 
	C271.126892,276.045074 271.637085,275.183807 272.236603,274.390442 
	C275.758484,269.729706 281.319702,268.501007 285.876007,271.352356 
	C290.567841,274.288513 292.352753,280.447968 288.869446,285.280975 
	C284.439636,291.427246 279.108337,296.923767 273.873932,302.908844 
z"/>
<path fill="#040202" opacity="1.000000" stroke="none" 
	d="
M288.152710,99.732132 
	C283.775818,99.871307 279.791046,99.894814 275.850006,100.322075 
	C269.911011,100.965950 265.168030,98.148064 264.004517,92.965630 
	C262.699554,87.153023 265.781006,82.172165 272.076874,80.775085 
	C294.991730,75.690186 320.827606,83.743767 328.844849,114.915169 
	C330.563354,121.596779 327.904449,126.664650 322.051331,128.363739 
	C316.381805,130.009521 311.358459,126.921295 309.481384,120.193703 
	C306.435699,109.277893 300.795593,101.206284 288.152710,99.732132 
z"/>
<path fill="#070404" opacity="1.000000" stroke="none" 
	d="
M332.101532,348.339630 
	C327.573669,345.759796 325.547882,342.189178 326.465912,337.413422 
	C327.335907,332.887726 330.331818,330.093048 334.844299,329.366699 
	C338.962982,328.703766 342.403046,330.361328 344.630768,333.856812 
	C346.977020,337.538147 346.897644,341.483154 344.363647,345.041321 
	C341.387604,349.220215 337.196625,350.004883 332.101532,348.339630 
z"/>
</svg>