<svg version="1.1" id="Layer_1" xmlns="http://www.w3.org/2000/svg" xmlns:xlink="http://www.w3.org/1999/xlink" x="0px" y="0px"
	 width="100%" viewBox="0 0 512 512" enable-background="new 0 0 512 512" xml:space="preserve">
<path fill="#000000" opacity="1.000000" stroke="none" 
	d="
M513.000000,363.000000 
	C513.000000,412.967987 513.000000,462.935944 513.000000,512.951965 
	C342.333344,512.951965 171.666672,512.951965 1.000000,512.951965 
	C1.000000,505.928650 1.000000,498.933105 1.278964,491.162842 
	C3.130850,491.936096 4.551888,493.686737 6.302091,494.998108 
	C15.577207,501.947632 23.428732,499.785217 30.646645,492.742004 
	C43.017124,480.670929 55.158482,468.364380 67.352982,456.113831 
	C81.290962,442.111816 95.181908,428.062958 109.405792,413.918091 
	C115.182800,408.516632 120.276085,402.766754 126.189461,398.043579 
	C138.329117,388.347351 152.746597,385.074677 168.466370,384.907532 
	C196.620758,384.932037 224.311829,384.882629 252.466202,384.907318 
	C285.590454,385.015625 318.251434,385.049835 351.033112,385.394958 
	C353.415588,387.858337 355.677307,390.010773 358.070923,392.466064 
	C371.513580,406.065552 384.828583,419.357971 398.134186,432.659760 
	C418.392242,452.911926 438.643311,473.171173 458.898560,493.426178 
	C463.760681,498.288269 469.482208,500.658966 476.194794,498.218781 
	C483.399902,495.599457 485.991699,491.024445 486.001343,482.426697 
	C486.037659,449.952881 486.079071,417.479095 486.459534,384.857239 
	C497.977356,381.637543 506.085968,374.948944 510.963165,364.366638 
	C511.255280,363.732819 512.303589,363.447510 513.000000,363.000000 
z"/>
<path fill="#EBEFF0" opacity="1.000000" stroke="none" 
	d="
M1.000000,296.000000 
	C1.000000,209.979111 1.000000,123.958214 1.300565,37.764927 
	C2.365948,36.568989 3.318000,35.636528 3.866996,34.507988 
	C10.262894,21.360310 20.793028,14.990216 35.352604,14.991979 
	C155.573257,15.006534 275.793915,15.001249 396.014557,15.010105 
	C398.008636,15.010252 400.002716,15.112253 401.946960,15.502434 
	C400.627655,17.073793 399.517334,18.551332 398.063995,19.507647 
	C383.682220,28.971029 369.202209,38.285877 354.876648,47.832817 
	C353.193848,48.954277 352.272430,51.218136 350.531494,53.000450 
	C324.827057,53.065144 299.589081,53.056976 274.351257,53.108829 
	C261.571320,53.135086 248.791611,53.269741 235.550262,53.260376 
	C176.447952,53.141296 117.807076,53.049057 59.166485,53.139442 
	C43.842461,53.163059 30.357958,63.961250 29.212021,79.200294 
	C27.818897,97.726532 28.636396,116.419006 28.394291,135.493530 
	C28.366791,147.964401 28.442572,159.981323 28.396530,172.454681 
	C28.360401,180.606262 28.446093,188.301407 28.408203,196.452850 
	C28.367943,204.614258 28.451258,212.319351 28.420589,220.476913 
	C28.382463,228.617554 28.458324,236.305740 28.409821,244.449738 
	C28.367756,251.279099 28.450054,257.652618 28.418545,264.477478 
	C28.216530,270.286682 28.128323,275.644470 27.664396,281.008301 
	C24.696266,282.339966 22.039206,283.554169 19.524216,285.013214 
	C13.314775,288.615662 7.170481,292.330414 1.000000,296.000000 
z"/>
<path fill="#000000" opacity="1.000000" stroke="none" 
	d="
M401.996796,15.166724 
	C400.002716,15.112253 398.008636,15.010252 396.014557,15.010105 
	C275.793915,15.001249 155.573257,15.006534 35.352604,14.991979 
	C20.793028,14.990216 10.262894,21.360310 3.866996,34.507988 
	C3.318000,35.636528 2.365948,36.568989 1.300565,37.296268 
	C1.000000,25.008989 1.000000,13.017980 1.000000,1.044540 
	C171.666672,1.044540 342.333344,1.044540 513.000000,1.044540 
	C513.000000,12.746947 513.000000,24.404816 512.698669,36.826164 
	C511.260040,35.683411 510.143677,33.764317 508.981934,31.873093 
	C503.046112,22.210268 494.579224,15.435110 483.223389,15.199224 
	C456.159332,14.637045 429.073700,15.111176 401.996796,15.166724 
z"/>
<path fill="#E5E7E7" opacity="1.000000" stroke="none" 
	d="
M109.093292,414.034454 
	C95.181908,428.062958 81.290962,442.111816 67.352982,456.113831 
	C55.158482,468.364380 43.017124,480.670929 30.646645,492.742004 
	C23.428732,499.785217 15.577207,501.947632 6.302091,494.998108 
	C4.551888,493.686737 3.130850,491.936096 1.278964,490.694061 
	C1.000000,468.312439 1.000000,445.624878 1.354207,422.427673 
	C2.324078,421.679321 3.008222,421.543732 3.545546,421.187012 
	C25.721928,406.464233 47.885109,391.721619 70.387550,377.026306 
	C75.143730,381.050720 79.562332,385.030273 84.133835,389.305573 
	C92.555588,397.745697 100.824440,405.890076 109.093292,414.034454 
z"/>
<path fill="#E8EBEC" opacity="1.000000" stroke="none" 
	d="
M401.946960,15.502434 
	C429.073700,15.111176 456.159332,14.637045 483.223389,15.199224 
	C494.579224,15.435110 503.046112,22.210268 508.981934,31.873093 
	C510.143677,33.764317 511.260040,35.683411 512.698669,37.294823 
	C513.000000,57.354229 513.000000,77.708458 512.693542,98.399506 
	C504.551270,90.963211 496.746826,83.157967 488.855011,75.442123 
	C487.128632,73.754280 485.090607,72.385178 483.173065,70.877106 
	C483.150024,70.884933 483.104706,70.894684 483.082794,70.601776 
	C482.703827,69.867821 482.346771,69.426758 481.804932,68.709343 
	C478.793579,65.538528 475.967041,62.644077 472.942108,59.471386 
	C468.343628,57.398907 464.074982,55.042622 459.505249,53.973843 
	C455.225555,52.972893 450.626770,53.128822 446.168671,53.132149 
	C419.116394,53.152328 392.064209,53.274555 364.554871,53.274986 
	C359.731171,53.108986 355.364624,53.030701 350.998047,52.952415 
	C352.272430,51.218136 353.193848,48.954277 354.876648,47.832817 
	C369.202209,38.285877 383.682220,28.971029 398.063995,19.507647 
	C399.517334,18.551332 400.627655,17.073793 401.946960,15.502434 
z"/>
<path fill="#E7EAEA" opacity="1.000000" stroke="none" 
	d="
M70.049973,376.981476 
	C47.885109,391.721619 25.721928,406.464233 3.545546,421.187012 
	C3.008222,421.543732 2.324078,421.679321 1.354207,421.959015 
	C1.000000,380.312439 1.000000,338.624878 1.000000,296.468658 
	C7.170481,292.330414 13.314775,288.615662 19.524216,285.013214 
	C22.039206,283.554169 24.696266,282.339966 27.716434,281.470337 
	C28.282904,285.951385 28.421614,289.976440 28.433197,294.457092 
	C28.267340,303.502350 27.637981,312.144409 28.393368,320.663666 
	C28.914333,326.539062 31.351593,332.244568 33.000877,338.361877 
	C37.368408,342.837921 41.667515,346.978088 46.131275,351.400269 
	C52.860096,358.461945 59.424263,365.241669 66.133598,372.308472 
	C67.535835,374.057526 68.792900,375.519501 70.049973,376.981476 
z"/>
<path fill="#E3E5E5" opacity="1.000000" stroke="none" 
	d="
M513.000000,362.531372 
	C512.303589,363.447510 511.255280,363.732819 510.963165,364.366638 
	C506.085968,374.948944 497.977356,381.637543 486.365509,384.396423 
	C485.879547,382.105042 485.802521,380.126617 485.781830,378.147644 
	C485.652374,365.776764 485.535583,353.405762 485.550964,340.582275 
	C485.779022,335.418945 485.870667,330.708099 486.372559,325.998169 
	C488.974579,325.437866 491.226013,325.043457 493.347015,324.284485 
	C499.924652,321.930756 506.452698,319.438477 513.000000,317.000000 
	C513.000000,332.020905 513.000000,347.041779 513.000000,362.531372 
z"/>
<path fill="#C8CED4" opacity="1.000000" stroke="none" 
	d="
M513.000000,141.000000 
	C513.000000,157.020889 513.000000,173.041794 512.631348,189.577240 
	C509.965698,191.002441 507.683228,191.951843 505.368958,192.816284 
	C498.908936,195.229279 492.435730,197.607086 485.927673,199.531555 
	C485.788940,184.052567 485.690277,169.040817 485.701172,153.661224 
	C485.870850,152.530685 485.930969,151.767975 486.371643,150.997681 
	C495.501465,147.660080 504.250732,144.330048 513.000000,141.000000 
z"/>
<path fill="#DCDFE1" opacity="1.000000" stroke="none" 
	d="
M513.000000,316.531342 
	C506.452698,319.438477 499.924652,321.930756 493.347015,324.284485 
	C491.226013,325.043457 488.974579,325.437866 486.307556,325.533447 
	C485.696564,318.388885 485.560852,311.709930 485.558533,304.575165 
	C485.775299,295.743927 485.858734,287.368561 486.331085,278.986694 
	C489.503784,277.975311 492.304413,277.014496 495.067810,275.956451 
	C501.055298,273.664032 507.023773,271.321838 513.000000,269.000000 
	C513.000000,284.687561 513.000000,300.375122 513.000000,316.531342 
z"/>
<path fill="#D3D8DC" opacity="1.000000" stroke="none" 
	d="
M513.000000,268.531342 
	C507.023773,271.321838 501.055298,273.664032 495.067810,275.956451 
	C492.304413,277.014496 489.503784,277.975311 486.275879,278.521820 
	C485.704071,272.389221 485.576385,266.714996 485.580627,260.583435 
	C485.791290,252.416275 485.870087,244.706512 486.341125,236.989120 
	C495.488953,233.654327 504.244476,230.327164 513.000000,227.000000 
	C513.000000,240.687561 513.000000,254.375122 513.000000,268.531342 
z"/>
<path fill="#CED4D9" opacity="1.000000" stroke="none" 
	d="
M513.000000,226.531342 
	C504.244476,230.327164 495.488953,233.654327 486.296570,236.522461 
	C485.742859,226.379333 485.626007,216.695206 485.618378,206.585922 
	C485.807617,204.106750 485.887695,202.052765 485.967743,199.998764 
	C492.435730,197.607086 498.908936,195.229279 505.368958,192.816284 
	C507.683228,191.951843 509.965698,191.002441 512.631348,190.045898 
	C513.000000,202.020889 513.000000,214.041794 513.000000,226.531342 
z"/>
<path fill="#B6BFC5" opacity="1.000000" stroke="none" 
	d="
M483.196106,70.869278 
	C485.090607,72.385178 487.128632,73.754280 488.855011,75.442123 
	C496.746826,83.157967 504.551270,90.963211 512.693542,98.868164 
	C513.000000,105.021156 513.000000,111.042305 512.616211,117.539871 
	C511.132324,118.354614 510.021179,118.660805 508.934052,119.036476 
	C501.278015,121.682190 493.626953,124.342209 485.947388,126.553696 
	C485.830780,123.747009 485.741058,121.384300 485.743896,118.557693 
	C485.794922,108.064735 485.753387,98.035660 485.778320,87.572006 
	C484.961914,81.714706 484.079010,76.291992 483.196106,70.869278 
z"/>
<path fill="#BCC4CB" opacity="1.000000" stroke="none" 
	d="
M485.974274,126.997665 
	C493.626953,124.342209 501.278015,121.682190 508.934052,119.036476 
	C510.021179,118.660805 511.132324,118.354614 512.616211,118.008141 
	C513.000000,125.354248 513.000000,132.708496 513.000000,140.531372 
	C504.250732,144.330048 495.501465,147.660080 486.336151,150.529480 
	C485.938171,142.378464 485.956207,134.688065 485.974274,126.997665 
z"/>
<path fill="#4C8DF1" opacity="1.000000" stroke="none" 
	d="
M485.414551,341.034790 
	C485.535583,353.405762 485.652374,365.776764 485.781830,378.147644 
	C485.802521,380.126617 485.879547,382.105042 486.024536,384.544495 
	C486.079071,417.479095 486.037659,449.952881 486.001343,482.426697 
	C485.991699,491.024445 483.399902,495.599457 476.194794,498.218781 
	C469.482208,500.658966 463.760681,498.288269 458.898560,493.426178 
	C438.643311,473.171173 418.392242,452.911926 398.134186,432.659760 
	C384.828583,419.357971 371.513580,406.065552 358.125214,392.100464 
	C359.474426,390.210419 360.705261,388.492065 362.356934,387.840485 
	C397.067261,374.147858 431.802032,360.516296 466.595123,347.035492 
	C472.723297,344.661102 479.134216,343.016449 485.414551,341.034790 
z"/>
<path fill="#5190F0" opacity="1.000000" stroke="none" 
	d="
M485.550964,340.582275 
	C479.134216,343.016449 472.723297,344.661102 466.595123,347.035492 
	C431.802032,360.516296 397.067261,374.147858 362.356934,387.840485 
	C360.705261,388.492065 359.474426,390.210419 357.993347,391.797607 
	C355.677307,390.010773 353.415588,387.858337 351.005310,385.056396 
	C345.115906,378.646149 339.846802,372.282898 333.491150,367.307526 
	C327.993195,363.003510 321.261566,360.275452 314.814301,356.609161 
	C312.035583,355.586182 309.517853,354.804840 306.961151,353.678345 
	C304.281586,350.222534 301.640930,347.111877 299.399933,343.990631 
	C307.848145,342.001129 315.877350,339.938751 323.949341,338.060455 
	C341.540924,333.967010 359.140839,329.907166 376.762543,325.945770 
	C394.849976,321.879761 412.994019,318.061127 431.044952,313.841827 
	C433.973969,313.157227 438.634399,314.292175 439.349884,309.041107 
	C441.495880,310.250000 443.494171,311.197723 445.050476,312.626770 
	C448.768005,316.040405 452.746368,316.901337 457.373627,314.763611 
	C459.027222,313.999664 460.753265,313.377594 462.479706,312.788971 
	C470.121552,310.183533 477.775513,307.613708 485.425110,305.031006 
	C485.560852,311.709930 485.696564,318.388885 485.897278,325.532532 
	C485.870667,330.708099 485.779022,335.418945 485.550964,340.582275 
z"/>
<path fill="#D3D8DC" opacity="1.000000" stroke="none" 
	d="
M109.405792,413.918091 
	C100.824440,405.890076 92.555588,397.745697 84.536011,389.300964 
	C89.452728,387.397736 94.161156,385.903931 98.779198,384.169495 
	C108.674744,380.452911 118.515945,376.591919 128.393661,372.827515 
	C139.045105,368.768219 149.780716,364.919006 160.341034,360.636414 
	C164.743439,358.851105 168.787766,356.182831 173.462555,353.874329 
	C186.962982,353.658966 199.995758,353.485291 213.472443,353.453430 
	C223.946854,353.567627 233.977356,353.539978 243.988495,353.850677 
	C242.324692,355.412598 240.850540,357.082581 239.007568,357.785492 
	C228.809280,361.674957 218.551025,365.413818 208.254517,369.037109 
	C199.811035,372.008331 191.194992,374.507385 182.829666,377.675751 
	C177.717209,379.612152 172.934097,382.418182 168.003067,384.833618 
	C152.746597,385.074677 138.329117,388.347351 126.189461,398.043579 
	C120.276085,402.766754 115.182800,408.516632 109.405792,413.918091 
z"/>
<path fill="#D8DBDF" opacity="1.000000" stroke="none" 
	d="
M168.466370,384.907532 
	C172.934097,382.418182 177.717209,379.612152 182.829666,377.675751 
	C191.194992,374.507385 199.811035,372.008331 208.254517,369.037109 
	C218.551025,365.413818 228.809280,361.674957 239.007568,357.785492 
	C240.850540,357.082581 242.324692,355.412598 244.449463,353.765808 
	C265.619904,353.569519 286.309998,353.796509 307.000092,354.023499 
	C309.517853,354.804840 312.035583,355.586182 314.637085,356.937744 
	C312.497925,358.496490 310.293732,359.529968 308.048981,360.466187 
	C293.215149,366.652924 278.346680,372.757721 263.550140,379.032196 
	C259.592682,380.710327 255.846222,382.885956 252.002914,384.833221 
	C224.311829,384.882629 196.620758,384.932037 168.466370,384.907532 
z"/>
<path fill="#DCDFE1" opacity="1.000000" stroke="none" 
	d="
M252.466202,384.907318 
	C255.846222,382.885956 259.592682,380.710327 263.550140,379.032196 
	C278.346680,372.757721 293.215149,366.652924 308.048981,360.466187 
	C310.293732,359.529968 312.497925,358.496490 314.898071,357.179382 
	C321.261566,360.275452 327.993195,363.003510 333.491150,367.307526 
	C339.846802,372.282898 345.115906,378.646149 350.884583,384.745422 
	C318.251434,385.049835 285.590454,385.015625 252.466202,384.907318 
z"/>
<path fill="#7AABF4" opacity="1.000000" stroke="none" 
	d="
M350.531494,53.000450 
	C355.364624,53.030701 359.731171,53.108986 364.535645,53.615807 
	C364.112244,54.939869 363.415863,56.249084 362.364624,56.668133 
	C349.091400,61.959274 335.765503,67.118233 322.456024,72.318504 
	C294.906006,83.082848 267.340363,93.807991 239.852676,104.729294 
	C238.232101,105.373169 237.245148,107.611801 235.610840,109.046677 
	C226.038712,102.678299 215.793381,100.603264 204.736374,100.934326 
	C187.971451,101.436287 175.230667,109.068710 164.897446,121.925476 
	C162.306519,121.913918 159.863754,121.489571 157.883987,122.258041 
	C122.040833,136.170959 86.268997,150.267487 50.441212,164.220245 
	C43.219215,167.032776 35.830303,169.416687 28.518353,171.998230 
	C28.442572,159.981323 28.366791,147.964401 28.757195,135.480896 
	C36.556644,132.464722 43.978382,130.142395 51.208359,127.327530 
	C88.945984,112.635033 126.636253,97.820847 164.340240,83.041969 
	C187.055328,74.138313 209.774628,65.245117 232.454697,56.253029 
	C233.810272,55.715580 234.833786,54.340630 236.011810,53.355392 
	C248.791611,53.269741 261.571320,53.135086 274.351257,53.108829 
	C299.589081,53.056976 324.827057,53.065144 350.531494,53.000450 
z"/>
<path fill="#81AFF4" opacity="1.000000" stroke="none" 
	d="
M235.550262,53.260376 
	C234.833786,54.340630 233.810272,55.715580 232.454697,56.253029 
	C209.774628,65.245117 187.055328,74.138313 164.340240,83.041969 
	C126.636253,97.820847 88.945984,112.635033 51.208359,127.327530 
	C43.978382,130.142395 36.556644,132.464722 28.860474,135.026917 
	C28.636396,116.419006 27.818897,97.726532 29.212021,79.200294 
	C30.357958,63.961250 43.842461,53.163059 59.166485,53.139442 
	C117.807076,53.049057 176.447952,53.141296 235.550262,53.260376 
z"/>
<path fill="#6CA2F3" opacity="1.000000" stroke="none" 
	d="
M28.560326,294.001465 
	C28.421614,289.976440 28.282904,285.951385 28.092154,281.464325 
	C28.128323,275.644470 28.216530,270.286682 28.792530,264.468689 
	C37.085983,261.384857 45.001652,259.046509 52.677639,256.086578 
	C80.981178,245.172607 109.221825,234.094742 137.452972,222.994156 
	C153.340378,216.747177 169.162857,210.335068 185.321320,204.136658 
	C191.105484,209.574982 196.582916,214.873978 201.709839,220.380310 
	C187.174637,221.392212 173.295181,223.782410 160.077911,229.139603 
	C141.415771,236.703720 124.247696,246.365997 112.691452,263.860504 
	C111.103523,263.718384 109.704506,263.353912 108.609268,263.776581 
	C90.176392,270.890045 71.813957,278.186646 53.363056,285.252411 
	C45.178879,288.386566 36.832874,291.098083 28.560326,294.001465 
z"/>
<path fill="#71A5F3" opacity="1.000000" stroke="none" 
	d="
M28.534187,243.993912 
	C28.458324,236.305740 28.382463,228.617554 28.781731,220.468262 
	C30.557055,219.802628 31.946552,219.827225 33.144436,219.360245 
	C67.019203,206.155243 100.836113,192.800659 134.761765,179.728165 
	C142.737091,176.655045 151.068863,174.506943 159.461670,172.166946 
	C160.762619,174.321732 161.838516,176.242844 162.995972,178.491608 
	C165.831711,182.505798 168.585892,186.192383 170.974304,190.026062 
	C169.028076,190.647476 167.404709,191.012192 165.873489,191.612091 
	C126.987976,206.846481 88.135826,222.166428 49.212006,237.302139 
	C42.471279,239.923309 35.434319,241.782669 28.534187,243.993912 
z"/>
<path fill="#77A9F4" opacity="1.000000" stroke="none" 
	d="
M28.396532,172.454681 
	C35.830303,169.416687 43.219215,167.032776 50.441212,164.220245 
	C86.268997,150.267487 122.040833,136.170959 157.883987,122.258041 
	C159.863754,121.489571 162.306519,121.913918 164.696594,122.216507 
	C158.900833,130.795471 156.746933,140.203415 155.411041,149.940887 
	C152.954956,149.795868 150.611618,149.045929 148.824387,149.736084 
	C119.412636,161.093399 90.092506,172.687653 60.702103,184.100739 
	C50.045784,188.238846 39.259026,192.041077 28.531784,195.996552 
	C28.446093,188.301407 28.360401,180.606262 28.396532,172.454681 
z"/>
<path fill="#74A7F3" opacity="1.000000" stroke="none" 
	d="
M28.408207,196.452866 
	C39.259026,192.041077 50.045784,188.238846 60.702103,184.100739 
	C90.092506,172.687653 119.412636,161.093399 148.824387,149.736084 
	C150.611618,149.045929 152.954956,149.795868 155.465286,150.401535 
	C157.006241,157.929306 158.121445,164.931305 159.236649,171.933289 
	C151.068863,174.506943 142.737091,176.655045 134.761765,179.728165 
	C100.836113,192.800659 67.019203,206.155243 33.144436,219.360245 
	C31.946552,219.827225 30.557055,219.802628 28.895718,220.015793 
	C28.451258,212.319351 28.367943,204.614258 28.408207,196.452866 
z"/>
<path fill="#6FA4F3" opacity="1.000000" stroke="none" 
	d="
M28.409822,244.449738 
	C35.434319,241.782669 42.471279,239.923309 49.212006,237.302139 
	C88.135826,222.166428 126.987976,206.846481 165.873489,191.612091 
	C167.404709,191.012192 169.028076,190.647476 171.197021,190.201401 
	C172.507950,190.853790 173.230362,191.477951 174.105530,192.389526 
	C175.844086,194.077820 177.429886,195.478699 179.141998,197.190247 
	C181.183746,199.666397 183.099167,201.831879 185.014587,203.997360 
	C169.162857,210.335068 153.340378,216.747177 137.452972,222.994156 
	C109.221825,234.094742 80.981178,245.172607 52.677639,256.086578 
	C45.001652,259.046509 37.085983,261.384857 28.906338,264.017303 
	C28.450054,257.652618 28.367756,251.279099 28.409822,244.449738 
z"/>
<path fill="#CED4D9" opacity="1.000000" stroke="none" 
	d="
M172.994904,353.916016 
	C168.787766,356.182831 164.743439,358.851105 160.341034,360.636414 
	C149.780716,364.919006 139.045105,368.768219 128.393661,372.827515 
	C118.515945,376.591919 108.674744,380.452911 98.779198,384.169495 
	C94.161156,385.903931 89.452728,387.397736 84.383102,389.005219 
	C79.562332,385.030273 75.143730,381.050720 70.387558,377.026306 
	C68.792900,375.519501 67.535835,374.057526 66.370834,372.040497 
	C78.513756,366.870087 90.597466,362.336975 102.578972,357.548157 
	C104.316017,356.853882 105.563477,354.934692 107.487907,353.465027 
	C127.289948,353.257507 146.641571,353.167267 166.385620,353.116211 
	C168.850327,353.408936 170.922623,353.662476 172.994904,353.916016 
z"/>
<path fill="#74A7F3" opacity="1.000000" stroke="none" 
	d="
M235.963318,109.108307 
	C237.245148,107.611801 238.232101,105.373169 239.852676,104.729294 
	C267.340363,93.807991 294.906006,83.082848 322.456024,72.318504 
	C335.765503,67.118233 349.091400,61.959274 362.364624,56.668133 
	C363.415863,56.249084 364.112244,54.939869 364.992798,53.703522 
	C392.064209,53.274555 419.116394,53.152328 446.168671,53.132149 
	C450.626770,53.128822 455.225555,52.972893 459.505249,53.973843 
	C464.074982,55.042622 468.343628,57.398907 472.733215,59.736809 
	C470.431763,60.055908 467.819580,58.994160 465.897705,59.731579 
	C433.937256,71.995026 402.064209,84.486298 370.169769,96.921890 
	C343.539856,107.304832 316.885223,117.624832 290.290070,128.096039 
	C282.441376,131.186279 274.757782,134.695908 266.702881,137.859802 
	C264.985565,136.351303 263.614349,134.938187 262.132080,133.653168 
	C258.721466,130.696365 255.256851,127.801888 251.544495,124.706726 
	C247.067307,120.226387 242.859756,115.921440 238.414429,111.410614 
	C237.438858,110.505920 236.701080,109.807114 235.963318,109.108307 
z"/>
<path fill="#6FA4F3" opacity="1.000000" stroke="none" 
	d="
M266.998535,138.013351 
	C274.757782,134.695908 282.441376,131.186279 290.290070,128.096039 
	C316.885223,117.624832 343.539856,107.304832 370.169769,96.921890 
	C402.064209,84.486298 433.937256,71.995026 465.897705,59.731579 
	C467.819580,58.994160 470.431763,60.055908 472.931641,60.015045 
	C475.967041,62.644077 478.793579,65.538528 481.834015,69.005302 
	C482.400177,70.016647 482.752441,70.455673 483.104706,70.894684 
	C483.104706,70.894684 483.150024,70.884933 483.173065,70.877106 
	C484.079010,76.291992 484.961914,81.714706 485.419128,87.583229 
	C467.472961,94.692169 449.913055,101.254074 432.440735,108.041328 
	C403.666016,119.219070 374.932678,130.504303 346.244141,141.900925 
	C344.541718,142.577225 343.390533,144.641327 341.579834,146.036713 
	C319.043427,140.022385 302.652588,146.549103 291.603699,162.864227 
	C283.215851,154.465469 275.107208,146.239410 266.998535,138.013351 
z"/>
<path fill="#B6BFC5" opacity="1.000000" stroke="none" 
	d="
M483.082794,70.601784 
	C482.752441,70.455673 482.400177,70.016647 482.018799,69.281662 
	C482.346771,69.426758 482.703827,69.867821 483.082794,70.601784 
z"/>
<path fill="#619BF2" opacity="1.000000" stroke="none" 
	d="
M165.993195,353.077026 
	C146.641571,353.167267 127.289948,353.257507 107.031998,353.320374 
	C103.962151,353.250275 101.796204,353.259003 99.635521,353.156647 
	C81.752167,352.309723 63.728249,355.153870 45.966621,351.118256 
	C41.667515,346.978088 37.368408,342.837921 33.317093,338.203278 
	C35.310257,336.778046 36.983006,335.662262 38.811935,334.944427 
	C65.203003,324.585876 91.615059,314.280823 118.315712,304.119873 
	C123.743980,309.182068 128.878632,314.087402 134.160492,319.290527 
	C136.958649,322.312714 139.503677,325.151337 142.287415,327.732513 
	C145.750595,330.943726 149.410919,333.942291 153.028961,337.371521 
	C155.377747,340.142822 157.683701,342.575226 160.142120,345.303345 
	C162.194138,348.091736 164.093674,350.584412 165.993195,353.077026 
z"/>
<path fill="#679FF3" opacity="1.000000" stroke="none" 
	d="
M118.022095,303.962982 
	C91.615059,314.280823 65.203003,324.585876 38.811935,334.944427 
	C36.983006,335.662262 35.310257,336.778046 33.248665,337.867401 
	C31.351593,332.244568 28.914333,326.539062 28.393368,320.663666 
	C27.637981,312.144409 28.267340,303.502350 28.433197,294.457092 
	C36.832874,291.098083 45.178879,288.386566 53.363056,285.252411 
	C71.813957,278.186646 90.176392,270.890045 108.609268,263.776581 
	C109.704506,263.353912 111.103523,263.718384 112.649864,264.254059 
	C112.242783,273.196350 111.646019,281.610931 110.818047,290.002716 
	C110.220924,296.054718 112.401138,300.346588 118.026131,303.090027 
	C118.026184,303.575256 118.024139,303.769135 118.022095,303.962982 
z"/>
<path fill="#C8CED4" opacity="1.000000" stroke="none" 
	d="
M46.131275,351.400269 
	C63.728249,355.153870 81.752167,352.309723 99.635521,353.156647 
	C101.796204,353.259003 103.962151,353.250275 106.581573,353.437683 
	C105.563477,354.934692 104.316017,356.853882 102.578972,357.548157 
	C90.597466,362.336975 78.513756,366.870087 66.225670,371.753418 
	C59.424263,365.241669 52.860096,358.461945 46.131275,351.400269 
z"/>
<path fill="#619BF2" opacity="1.000000" stroke="none" 
	d="
M485.927673,199.531555 
	C485.887695,202.052765 485.807617,204.106750 485.254761,206.584747 
	C483.332611,207.273483 481.797668,207.316284 480.446991,207.836990 
	C465.447571,213.619431 450.473938,219.468842 435.499207,225.315277 
	C428.312012,228.121307 422.795502,226.196121 417.469025,220.302994 
	C409.921906,211.953003 401.849274,204.078003 393.851685,195.706284 
	C391.801849,193.274628 389.901550,191.136703 388.441223,188.999054 
	C391.335022,188.780411 393.996674,189.104782 396.210083,188.257767 
	C416.294159,180.571960 436.278290,172.625473 456.338043,164.875351 
	C466.038147,161.127701 475.837341,157.636429 485.591644,154.029053 
	C485.690277,169.040817 485.788940,184.052567 485.927673,199.531555 
z"/>
<path fill="#679FF3" opacity="1.000000" stroke="none" 
	d="
M485.701172,153.661224 
	C475.837341,157.636429 466.038147,161.127701 456.338043,164.875351 
	C436.278290,172.625473 416.294159,180.571960 396.210083,188.257767 
	C393.996674,189.104782 391.335022,188.780411 388.144836,188.848236 
	C380.271790,181.135162 373.135132,173.573212 366.066284,165.662933 
	C371.555817,162.969788 376.917358,160.472305 382.409332,158.305420 
	C413.920868,145.872421 445.452606,133.490326 477.014130,121.184944 
	C479.757355,120.115402 482.765991,119.726593 485.651367,119.021591 
	C485.741058,121.384300 485.830780,123.747009 485.947388,126.553696 
	C485.956207,134.688065 485.938171,142.378464 485.955597,150.537048 
	C485.930969,151.767975 485.870850,152.530685 485.701172,153.661224 
z"/>
<path fill="#5593F2" opacity="1.000000" stroke="none" 
	d="
M485.558502,304.575165 
	C477.775513,307.613708 470.121552,310.183533 462.479706,312.788971 
	C460.753265,313.377594 459.027222,313.999664 457.373627,314.763611 
	C452.746368,316.901337 448.768005,316.040405 445.050476,312.626770 
	C443.494171,311.197723 441.495880,310.250000 439.198547,308.745178 
	C433.801056,303.604614 428.903564,298.802307 423.853668,293.704834 
	C421.135010,290.606049 418.568787,287.802490 416.433838,284.999207 
	C418.990784,284.780884 421.286163,285.007568 423.214966,284.272400 
	C437.304871,278.901855 451.284546,273.241974 465.376862,267.877960 
	C471.978485,265.365143 478.752716,263.305725 485.448700,261.040802 
	C485.576385,266.714996 485.704071,272.389221 485.886963,278.528290 
	C485.858734,287.368561 485.775299,295.743927 485.558502,304.575165 
z"/>
<path fill="#5C97F1" opacity="1.000000" stroke="none" 
	d="
M485.580627,260.583435 
	C478.752716,263.305725 471.978485,265.365143 465.376862,267.877960 
	C451.284546,273.241974 437.304871,278.901855 423.214966,284.272400 
	C421.286163,285.007568 418.990784,284.780884 416.137817,284.847839 
	C410.924103,280.482697 406.437714,276.269257 401.961548,272.044067 
	C401.971741,272.032288 401.976135,272.021301 401.860504,271.787201 
	C401.453857,271.369873 401.162811,271.186646 400.623322,270.792969 
	C396.292480,266.703552 392.210083,262.824646 387.942261,258.658844 
	C382.529327,255.209488 377.301788,252.047043 371.824982,248.637482 
	C366.030304,245.997955 360.484955,243.605499 355.080719,240.895508 
	C357.338959,238.027405 359.312256,235.339279 361.597992,232.950104 
	C371.481689,222.619202 381.526123,212.440964 391.321655,202.028046 
	C392.743774,200.516251 393.133667,198.033463 394.001221,196.000000 
	C401.849274,204.078003 409.921906,211.953003 417.469025,220.302994 
	C422.795502,226.196121 428.312012,228.121307 435.499207,225.315277 
	C450.473938,219.468842 465.447571,213.619431 480.446991,207.836990 
	C481.797668,207.316284 483.332611,207.273483 485.145569,207.009918 
	C485.626007,216.695206 485.742859,226.379333 485.904297,236.530090 
	C485.870087,244.706512 485.791290,252.416275 485.580627,260.583435 
z"/>
<path fill="#6CA2F3" opacity="1.000000" stroke="none" 
	d="
M485.743896,118.557693 
	C482.765991,119.726593 479.757355,120.115402 477.014130,121.184944 
	C445.452606,133.490326 413.920868,145.872421 382.409332,158.305420 
	C376.917358,160.472305 371.555817,162.969788 365.725220,165.660141 
	C364.861786,166.016281 364.407227,166.026871 363.965820,166.023529 
	C363.979004,166.009598 363.986389,166.032425 363.878784,165.809021 
	C363.572723,165.307510 363.313538,165.108459 362.858582,164.735077 
	C362.158875,163.986923 361.594177,163.492157 360.974976,162.652740 
	C356.937378,158.232697 352.954315,154.157303 348.668701,149.921753 
	C346.238434,148.527588 344.110657,147.293594 341.982849,146.059601 
	C343.390533,144.641327 344.541718,142.577225 346.244141,141.900925 
	C374.932678,130.504303 403.666016,119.219070 432.440735,108.041328 
	C449.913055,101.254074 467.472961,94.692169 485.352661,88.017807 
	C485.753387,98.035660 485.794922,108.064735 485.743896,118.557693 
z"/>
<path fill="#518AE9" opacity="1.000000" stroke="none" 
	d="
M424.006104,294.000000 
	C428.903564,298.802307 433.801056,303.604614 438.849884,308.702820 
	C438.634399,314.292175 433.973969,313.157227 431.044952,313.841827 
	C412.994019,318.061127 394.849976,321.879761 376.762543,325.945770 
	C359.140839,329.907166 341.540924,333.967010 323.949341,338.060455 
	C315.877350,339.938751 307.848145,342.001129 299.103821,343.839294 
	C293.938019,339.134460 289.468018,334.570374 285.265381,329.735168 
	C294.972137,326.981964 304.393036,324.427124 313.854523,322.032501 
	C335.030182,316.673126 356.236145,311.433105 377.394073,306.005341 
	C379.066193,305.576385 380.461548,304.068542 382.452942,303.039124 
	C386.083405,303.007477 389.266174,302.771912 392.404907,303.043884 
	C397.020355,303.443878 400.496582,301.848877 403.273621,298.278564 
	C410.363739,297.030762 417.184937,295.515381 424.006104,294.000000 
z"/>
<path fill="#5593F2" opacity="1.000000" stroke="none" 
	d="
M284.997986,330.006256 
	C289.468018,334.570374 293.938019,339.134460 298.704163,343.849915 
	C301.640930,347.111877 304.281586,350.222534 306.961151,353.678345 
	C286.309998,353.796509 265.619904,353.569519 244.468842,353.427429 
	C233.977356,353.539978 223.946854,353.567627 213.481186,353.138611 
	C217.077194,350.396790 220.965057,347.796326 225.166962,345.886963 
	C236.743668,340.626526 248.353180,335.409790 260.148895,330.671600 
	C266.215210,328.234802 272.706146,326.854950 279.296051,325.145508 
	C281.390594,326.864441 283.194305,328.435364 284.997986,330.006256 
z"/>
<path fill="#5690ED" opacity="1.000000" stroke="none" 
	d="
M279.005188,324.997498 
	C272.706146,326.854950 266.215210,328.234802 260.148895,330.671600 
	C248.353180,335.409790 236.743668,340.626526 225.166962,345.886963 
	C220.965057,347.796326 217.077194,350.396790 213.037292,352.996765 
	C199.995758,353.485291 186.962982,353.658966 173.462555,353.874329 
	C170.922623,353.662476 168.850327,353.408936 166.385620,353.116211 
	C164.093674,350.584412 162.194138,348.091736 160.544250,345.299744 
	C162.562561,344.613586 164.446609,344.497223 166.082596,343.799377 
	C190.288651,333.473724 214.435089,323.008026 238.660126,312.727417 
	C245.330521,309.896637 252.212234,307.563782 259.292999,305.153748 
	C264.058258,309.539368 268.527496,313.773743 273.145935,318.301758 
	C275.198456,320.729431 277.101807,322.863464 279.005188,324.997498 
z"/>
<path fill="#EAEEEF" opacity="1.000000" stroke="none" 
	d="
M235.610840,109.046677 
	C236.701080,109.807114 237.438858,110.505920 238.045471,111.595856 
	C236.385254,113.456314 234.903793,114.979294 233.319260,116.386147 
	C224.043137,124.622108 214.782837,132.876663 205.439346,141.035751 
	C196.476440,148.862503 187.391602,156.549500 178.413162,164.358612 
	C173.193237,168.898682 168.077194,173.558197 162.914413,178.163971 
	C161.838516,176.242844 160.762619,174.321732 159.461670,172.166946 
	C158.121445,164.931305 157.006241,157.929306 155.836792,150.466675 
	C156.746933,140.203415 158.900833,130.795471 165.060272,122.358932 
	C175.230667,109.068710 187.971451,101.436287 204.736374,100.934326 
	C215.793381,100.603264 226.038712,102.678299 235.610840,109.046677 
z"/>
<path fill="#EAEEEF" opacity="1.000000" stroke="none" 
	d="
M118.024025,302.798706 
	C112.401138,300.346588 110.220924,296.054718 110.818047,290.002716 
	C111.646019,281.610931 112.242783,273.196350 112.980133,264.397980 
	C124.247696,246.365997 141.415771,236.703720 160.077911,229.139603 
	C173.295181,223.782410 187.174637,221.392212 202.155518,220.420563 
	C206.951950,220.321045 210.952209,220.388611 215.389740,220.602997 
	C227.239578,223.110672 238.652100,225.471497 250.040466,228.214615 
	C248.095901,230.686462 246.503250,233.271729 244.205673,234.790894 
	C212.278839,255.901291 180.240051,276.842346 148.297165,297.928589 
	C146.552902,299.080017 145.411713,301.145020 143.526215,302.851318 
	C134.716431,302.878113 126.370232,302.838409 118.024025,302.798706 
z"/>
<path fill="#558AE5" opacity="1.000000" stroke="none" 
	d="
M214.952454,220.456177 
	C210.952209,220.388611 206.951950,220.321045 202.506027,220.213226 
	C196.582916,214.873978 191.105484,209.574982 185.321320,204.136688 
	C183.099167,201.831879 181.183746,199.666397 179.522629,197.203766 
	C184.184998,198.570862 188.593063,200.235107 193.354736,202.077362 
	C204.588272,205.225250 215.356842,205.035767 225.994492,201.491440 
	C224.826569,203.913391 223.692062,205.981461 222.482559,208.004700 
	C219.993744,212.167892 217.464844,216.307098 214.952454,220.456177 
z"/>
<path fill="#E8EBEC" opacity="1.000000" stroke="none" 
	d="
M162.995972,178.491608 
	C168.077194,173.558197 173.193237,168.898682 178.413162,164.358612 
	C187.391602,156.549500 196.476440,148.862503 205.439346,141.035751 
	C214.782837,132.876663 224.043137,124.622108 233.319260,116.386147 
	C234.903793,114.979294 236.385254,113.456314 238.283264,111.801735 
	C242.859756,115.921440 247.067307,120.226387 251.571808,124.985558 
	C251.867233,125.625557 251.865738,125.811333 251.529938,126.044792 
	C236.820847,138.538223 222.500015,151.047043 208.053925,163.409439 
	C196.767517,173.067902 185.325607,182.544632 173.952789,192.102112 
	C173.230362,191.477951 172.507950,190.853790 171.562805,190.054291 
	C168.585892,186.192383 165.831711,182.505798 162.995972,178.491608 
z"/>
<path fill="#E5E7E7" opacity="1.000000" stroke="none" 
	d="
M174.105530,192.389526 
	C185.325607,182.544632 196.767517,173.067902 208.053925,163.409439 
	C222.500015,151.047043 236.820847,138.538223 251.764282,126.310905 
	C254.350372,132.305267 256.367859,138.081192 258.047302,144.002090 
	C238.713058,160.692947 219.688660,177.206680 200.751495,193.819824 
	C197.956451,196.271820 195.574310,199.194458 193.001129,201.899353 
	C188.593063,200.235107 184.184998,198.570862 179.396301,196.893097 
	C177.429886,195.478699 175.844086,194.077820 174.105530,192.389526 
z"/>
<path fill="#5E92E9" opacity="1.000000" stroke="none" 
	d="
M258.385345,143.857117 
	C256.367859,138.081192 254.350372,132.305267 252.098572,126.263222 
	C251.865738,125.811333 251.867233,125.625557 251.841446,125.160950 
	C255.256851,127.801888 258.721466,130.696365 262.132080,133.653168 
	C263.614349,134.938187 264.985565,136.351303 266.702881,137.859802 
	C275.107208,146.239410 283.215851,154.465469 291.505615,163.197357 
	C287.103180,172.626617 284.619843,181.908905 286.524292,192.045074 
	C284.919830,193.106827 283.436890,193.944717 282.398743,195.161957 
	C274.189758,204.786942 266.034668,214.458527 257.948334,224.186707 
	C256.725159,225.658234 255.943405,227.496704 254.605270,229.072556 
	C252.856934,228.597229 251.460785,228.214783 250.064636,227.832336 
	C238.652100,225.471497 227.239578,223.110672 215.389740,220.603012 
	C217.464844,216.307098 219.993744,212.167892 222.482559,208.004700 
	C223.692062,205.981461 224.826569,203.913391 226.289917,201.291992 
	C229.234848,199.366226 231.920624,198.079376 234.529160,196.651428 
	C252.052628,187.058792 262.737183,163.381683 258.385345,143.857117 
z"/>
<path fill="#A5C4FD" opacity="1.000000" stroke="none" 
	d="
M286.851868,191.996979 
	C284.619843,181.908905 287.103180,172.626617 291.784821,163.370056 
	C302.652588,146.549103 319.043427,140.022385 341.579834,146.036697 
	C344.110657,147.293594 346.238434,148.527588 348.632843,150.256851 
	C347.541931,152.386246 346.379639,154.245071 344.796967,155.620102 
	C326.879028,171.187332 308.896698,186.680466 290.645844,201.970673 
	C289.190643,198.497574 288.021271,195.247269 286.851868,191.996979 
z"/>
<path fill="#4F83E1" opacity="1.000000" stroke="none" 
	d="
M152.986099,337.032684 
	C149.410919,333.942291 145.750595,330.943726 142.287415,327.732513 
	C139.503677,325.151337 136.958649,322.312714 134.478897,319.147095 
	C142.001480,315.453308 149.419647,312.340851 156.674103,308.884735 
	C159.950760,307.323730 162.901627,305.078888 166.464386,303.075134 
	C180.282501,302.938812 193.636536,302.871613 207.455017,302.875671 
	C214.276825,303.016724 220.634201,303.086456 226.919601,303.488190 
	C225.369537,304.813293 224.003128,306.064819 222.395981,306.759247 
	C207.381973,313.246490 192.302032,319.581299 177.293152,326.080261 
	C169.138870,329.611145 161.085175,333.374298 152.986099,337.032684 
z"/>
<path fill="#558AE5" opacity="1.000000" stroke="none" 
	d="
M153.028961,337.371521 
	C161.085175,333.374298 169.138870,329.611145 177.293152,326.080261 
	C192.302032,319.581299 207.381973,313.246490 222.395981,306.759247 
	C224.003128,306.064819 225.369537,304.813293 227.384735,303.419983 
	C237.951492,303.062012 247.981140,303.104248 258.129395,303.381592 
	C258.497681,304.078613 258.747345,304.540527 258.996979,305.002441 
	C252.212234,307.563782 245.330521,309.896637 238.660126,312.727417 
	C214.435089,323.008026 190.288651,333.473724 166.082596,343.799377 
	C164.446609,344.497223 162.562561,344.613586 160.391769,345.004028 
	C157.683701,342.575226 155.377747,340.142822 153.028961,337.371521 
z"/>
<path fill="#4D7CD9" opacity="1.000000" stroke="none" 
	d="
M166.000305,303.144287 
	C162.901627,305.078888 159.950760,307.323730 156.674103,308.884735 
	C149.419647,312.340851 142.001480,315.453308 134.331665,318.849304 
	C128.878632,314.087402 123.743980,309.182068 118.315720,304.119873 
	C118.024139,303.769135 118.026184,303.575256 118.026131,303.090027 
	C126.370232,302.838409 134.716431,302.878113 143.990784,302.923706 
	C151.946060,303.001190 158.973190,303.072723 166.000305,303.144287 
z"/>
<path fill="#5E92E9" opacity="1.000000" stroke="none" 
	d="
M363.952637,166.037460 
	C364.407227,166.026871 364.861786,166.016281 365.657410,166.008469 
	C373.135132,173.573212 380.271790,181.135162 387.704834,188.847946 
	C389.901550,191.136703 391.801849,193.274628 393.851685,195.706268 
	C393.133667,198.033463 392.743774,200.516251 391.321655,202.028046 
	C381.526123,212.440964 371.481689,222.619202 361.597992,232.950104 
	C359.312256,235.339279 357.338959,238.027405 354.712036,240.850433 
	C353.459381,241.126465 352.716583,241.130035 351.602264,241.078857 
	C350.482269,240.960083 349.733734,240.896042 348.997314,240.482147 
	C349.898407,238.607651 350.674713,237.002579 351.695679,235.572098 
	C356.442841,228.920807 356.303406,224.793472 351.139862,217.670288 
	C354.062347,214.545853 357.231232,212.010239 359.514069,208.837143 
	C365.907928,199.949783 369.464233,190.186737 366.988007,178.597290 
	C365.969757,174.142502 364.961212,170.089981 363.952637,166.037460 
z"/>
<path fill="#4F83E1" opacity="1.000000" stroke="none" 
	d="
M423.853668,293.704834 
	C417.184937,295.515381 410.363739,297.030762 403.276642,297.808807 
	C402.657593,288.732941 402.304443,280.394379 401.951294,272.055847 
	C406.437714,276.269257 410.924103,280.482697 415.706543,284.847534 
	C418.568787,287.802490 421.135010,290.606049 423.853668,293.704834 
z"/>
<path fill="#81AFF4" opacity="1.000000" stroke="none" 
	d="
M401.961517,272.044067 
	C402.304443,280.394379 402.657593,288.732941 403.007690,297.541260 
	C400.496582,301.848877 397.020355,303.443878 392.404907,303.043884 
	C389.266174,302.771912 386.083405,303.007477 381.986328,303.017395 
	C368.039764,302.981476 355.027222,302.944244 341.965698,302.574707 
	C339.275970,299.166351 336.635284,296.090210 334.368896,293.004364 
	C335.983612,292.574615 337.381012,292.393951 338.441010,291.698822 
	C355.028900,280.820282 371.573273,269.875336 388.127686,258.945740 
	C392.210083,262.824646 396.292480,266.703552 400.753113,271.020050 
	C401.412933,271.645538 401.694550,271.833405 401.976135,272.021301 
	C401.976135,272.021301 401.971741,272.032288 401.961517,272.044067 
z"/>
<path fill="#9ABDFA" opacity="1.000000" stroke="none" 
	d="
M351.973755,241.133621 
	C352.716583,241.130035 353.459381,241.126465 354.570892,241.167969 
	C360.484955,243.605499 366.030304,245.997955 371.764587,248.994614 
	C370.663971,251.051422 369.609314,252.854218 368.047882,253.901184 
	C355.667542,262.202240 343.176239,270.337616 330.758148,278.582855 
	C328.736481,279.925171 326.907623,281.557892 324.694214,282.892578 
	C319.947968,278.479858 315.497101,274.231018 311.392426,269.941101 
	C324.395813,261.649872 337.083344,253.445267 349.658905,245.072510 
	C350.799194,244.313293 351.219238,242.472275 351.973755,241.133621 
z"/>
<path fill="#8DB6F7" opacity="1.000000" stroke="none" 
	d="
M324.989655,283.056396 
	C326.907623,281.557892 328.736481,279.925171 330.758148,278.582855 
	C343.176239,270.337616 355.667542,262.202240 368.047882,253.901184 
	C369.609314,252.854218 370.663971,251.051422 372.013855,249.241699 
	C377.301788,252.047043 382.529327,255.209488 387.942261,258.658813 
	C371.573273,269.875336 355.028900,280.820282 338.441010,291.698822 
	C337.381012,292.393951 335.983612,292.574615 334.073730,292.850281 
	C330.599365,289.489410 327.794525,286.272888 324.989655,283.056396 
z"/>
<path fill="#4F83E1" opacity="1.000000" stroke="none" 
	d="
M401.860504,271.787201 
	C401.694550,271.833405 401.412933,271.645538 401.001556,271.230530 
	C401.162811,271.186646 401.453857,271.369873 401.860504,271.787201 
z"/>
<path fill="#9ABDFA" opacity="1.000000" stroke="none" 
	d="
M290.931641,202.193481 
	C308.896698,186.680466 326.879028,171.187332 344.796967,155.620102 
	C346.379639,154.245071 347.541931,152.386246 348.935364,150.417023 
	C352.954315,154.157303 356.937378,158.232697 360.624939,162.693375 
	C344.308350,176.796982 328.339569,190.577148 312.230591,204.191437 
	C308.048096,207.726196 303.427185,210.742218 298.703186,213.850647 
	C295.909698,209.867691 293.420685,206.030579 290.931641,202.193481 
z"/>
<path fill="#8DB6F7" opacity="1.000000" stroke="none" 
	d="
M299.007629,213.996490 
	C303.427185,210.742218 308.048096,207.726196 312.230591,204.191437 
	C328.339569,190.577148 344.308350,176.796982 360.679443,163.038025 
	C361.594177,163.492157 362.158875,163.986923 362.965454,164.960190 
	C363.395233,165.730789 363.654938,165.928696 363.986389,166.032425 
	C363.986389,166.032425 363.979004,166.009598 363.965820,166.023529 
	C364.961212,170.089981 365.969757,174.142502 366.636841,178.637817 
	C364.284119,180.466812 362.133881,181.690018 360.285065,183.266693 
	C350.881897,191.285751 341.459015,199.286835 332.240692,207.515625 
	C326.640015,212.515076 321.397552,217.915802 315.612915,223.093658 
	C312.814056,222.350418 310.396484,221.649765 307.693726,220.780319 
	C304.608246,218.406509 301.807922,216.201508 299.007629,213.996490 
z"/>
<path fill="#5E92E9" opacity="1.000000" stroke="none" 
	d="
M363.878784,165.809021 
	C363.654938,165.928696 363.395233,165.730789 363.100464,165.213577 
	C363.313538,165.108459 363.572723,165.307510 363.878784,165.809021 
z"/>
<path fill="#4F83E1" opacity="1.000000" stroke="none" 
	d="
M342.014679,302.906982 
	C355.027222,302.944244 368.039764,302.981476 381.518921,303.040405 
	C380.461548,304.068542 379.066193,305.576385 377.394073,306.005341 
	C356.236145,311.433105 335.030182,316.673126 313.854523,322.032501 
	C304.393036,324.427124 294.972137,326.981964 285.265381,329.735168 
	C283.194305,328.435364 281.390594,326.864441 279.296051,325.145508 
	C277.101807,322.863464 275.198456,320.729431 273.412781,318.030640 
	C288.103333,313.574066 302.688080,309.725555 317.229736,305.720337 
	C318.620697,305.337219 319.742493,303.976685 321.458313,303.042786 
	C328.623138,302.979462 335.318909,302.943207 342.014679,302.906982 
z"/>
<path fill="#4D7CD9" opacity="1.000000" stroke="none" 
	d="
M320.989227,303.069855 
	C319.742493,303.976685 318.620697,305.337219 317.229736,305.720337 
	C302.688080,309.725555 288.103333,313.574066 273.263611,317.737030 
	C268.527496,313.773743 264.058258,309.539368 259.292999,305.153717 
	C258.747345,304.540527 258.497681,304.078613 258.593567,303.316162 
	C271.888824,302.936188 284.838531,302.856750 298.270386,302.853027 
	C306.164764,302.975800 313.576996,303.022827 320.989227,303.069855 
z"/>
<path fill="#E7EAEA" opacity="1.000000" stroke="none" 
	d="
M166.464386,303.075134 
	C158.973190,303.072723 151.946060,303.001190 144.454376,302.857208 
	C145.411713,301.145020 146.552902,299.080017 148.297165,297.928589 
	C180.240051,276.842346 212.278839,255.901291 244.205673,234.790894 
	C246.503250,233.271729 248.095901,230.686462 250.040466,228.214615 
	C251.460785,228.214783 252.856934,228.597229 254.824554,229.346100 
	C257.082336,230.351257 258.891449,230.776566 260.434418,231.664413 
	C268.656372,236.395340 276.811737,241.242050 285.086792,246.303192 
	C285.458527,247.026855 285.733521,247.496017 285.856628,248.269516 
	C283.346924,250.348572 281.078247,252.258713 278.617554,253.876938 
	C255.513870,269.070679 232.365570,284.196655 209.288437,299.430481 
	C208.237885,300.123993 207.743820,301.660522 206.990570,302.804413 
	C193.636536,302.871613 180.282501,302.938812 166.464386,303.075134 
z"/>
<path fill="#E3E5E5" opacity="1.000000" stroke="none" 
	d="
M258.047302,144.002090 
	C262.737183,163.381683 252.052628,187.058792 234.529160,196.651428 
	C231.920624,198.079376 229.234848,199.366226 226.289383,200.917816 
	C215.356842,205.035767 204.588272,205.225250 193.354736,202.077362 
	C195.574310,199.194458 197.956451,196.271820 200.751495,193.819824 
	C219.688660,177.206680 238.713058,160.692947 258.047302,144.002090 
z"/>
<path fill="#6097EE" opacity="1.000000" stroke="none" 
	d="
M284.990112,246.048706 
	C276.811737,241.242050 268.656372,236.395340 260.434418,231.664413 
	C258.891449,230.776566 257.082336,230.351257 255.176743,229.438995 
	C255.943405,227.496704 256.725159,225.658234 257.948334,224.186707 
	C266.034668,214.458527 274.189758,204.786942 282.398743,195.161957 
	C283.436890,193.944717 284.919830,193.106827 286.524292,192.045074 
	C288.021271,195.247269 289.190643,198.497574 290.645844,201.970673 
	C293.420685,206.030579 295.909698,209.867691 298.703186,213.850647 
	C301.807922,216.201508 304.608246,218.406509 307.738037,221.128998 
	C310.104889,223.989746 312.153229,226.323532 314.176788,228.678619 
	C316.799835,231.731430 319.403198,234.801193 321.580933,237.913788 
	C317.056274,238.493469 312.881927,238.672729 308.892731,239.626358 
	C300.871765,241.543762 292.951782,243.883331 284.990112,246.048706 
z"/>
<path fill="#E3E5E5" opacity="1.000000" stroke="none" 
	d="
M207.455017,302.875671 
	C207.743820,301.660522 208.237885,300.123993 209.288437,299.430481 
	C232.365570,284.196655 255.513870,269.070679 278.617554,253.876938 
	C281.078247,252.258713 283.346924,250.348572 286.208130,248.314621 
	C291.131989,252.011810 295.552368,255.968231 300.020844,260.296631 
	C301.058777,262.922882 302.640289,265.104309 302.928802,267.445038 
	C303.835480,274.801422 304.367950,282.210785 304.828552,289.613098 
	C305.185730,295.353333 303.142975,299.998657 297.788239,302.777283 
	C284.838531,302.856750 271.888824,302.936188 258.474976,303.081055 
	C247.981140,303.104248 237.951492,303.062012 227.456696,303.087982 
	C220.634201,303.086456 214.276825,303.016724 207.455017,302.875671 
z"/>
<path fill="#A5C4FD" opacity="1.000000" stroke="none" 
	d="
M299.972778,259.924652 
	C295.552368,255.968231 291.131989,252.011810 286.360046,248.010284 
	C285.733521,247.496017 285.458527,247.026855 285.086792,246.303192 
	C292.951782,243.883331 300.871765,241.543762 308.892731,239.626358 
	C312.881927,238.672729 317.056274,238.493469 322.045654,237.955551 
	C331.624725,238.908798 340.304962,239.870407 348.985229,240.832016 
	C349.733734,240.896042 350.482269,240.960083 351.602264,241.078888 
	C351.219238,242.472275 350.799194,244.313293 349.658905,245.072510 
	C337.083344,253.445267 324.395813,261.649872 311.123352,269.747192 
	C306.996368,266.371094 303.484558,263.147888 299.972778,259.924652 
z"/>
<path fill="#81AFF4" opacity="1.000000" stroke="none" 
	d="
M315.994171,223.136261 
	C321.397552,217.915802 326.640015,212.515076 332.240692,207.515625 
	C341.459015,199.286835 350.881897,191.285751 360.285065,183.266693 
	C362.133881,181.690018 364.284119,180.466812 366.646515,179.040070 
	C369.464233,190.186737 365.907928,199.949783 359.514069,208.837143 
	C357.231232,212.010239 354.062347,214.545853 350.790894,217.729187 
	C349.435333,218.581131 348.594666,219.090408 347.737061,219.569351 
	C337.655975,225.199371 327.167114,227.216003 315.994171,223.136261 
z"/>
<path fill="#5690ED" opacity="1.000000" stroke="none" 
	d="
M315.612915,223.093658 
	C327.167114,227.216003 337.655975,225.199371 347.737061,219.569351 
	C348.594666,219.090408 349.435333,218.581131 350.632874,218.027023 
	C356.303406,224.793472 356.442841,228.920807 351.695679,235.572098 
	C350.674713,237.002579 349.898407,238.607651 348.997314,240.482147 
	C340.304962,239.870407 331.624725,238.908798 322.479736,237.905426 
	C319.403198,234.801193 316.799835,231.731430 314.176788,228.678619 
	C312.153229,226.323532 310.104889,223.989746 308.023224,221.297821 
	C310.396484,221.649765 312.814056,222.350418 315.612915,223.093658 
z"/>
<path fill="#77A9F4" opacity="1.000000" stroke="none" 
	d="
M300.020844,260.296631 
	C303.484558,263.147888 306.996368,266.371094 310.777222,269.788239 
	C315.497101,274.231018 319.947968,278.479858 324.694214,282.892578 
	C327.794525,286.272888 330.599365,289.489410 333.699402,292.859985 
	C336.635284,296.090210 339.275970,299.166351 341.965698,302.574707 
	C335.318909,302.943207 328.623138,302.979462 321.458313,303.042786 
	C313.576996,303.022827 306.164764,302.975800 298.270386,302.853027 
	C303.142975,299.998657 305.185730,295.353333 304.828552,289.613098 
	C304.367950,282.210785 303.835480,274.801422 302.928802,267.445038 
	C302.640289,265.104309 301.058777,262.922882 300.020844,260.296631 
z"/>
</svg>