<svg version="1.1" id="Layer_1" xmlns="http://www.w3.org/2000/svg" xmlns:xlink="http://www.w3.org/1999/xlink" x="0px" y="0px"
	 width="100%" viewBox="0 0 512 512" enable-background="new 0 0 512 512" xml:space="preserve">
<path fill="#000000" opacity="1.000000" stroke="none" 
	d="
M1.000000,199.000000 
	C1.000000,132.666672 1.000000,66.833336 1.000000,1.000000 
	C171.666672,1.000000 342.333344,1.000000 513.000000,1.000000 
	C513.000000,171.666672 513.000000,342.333344 513.000000,513.000000 
	C342.333344,513.000000 171.666672,513.000000 1.000000,513.000000 
	C1.000000,408.500000 1.000000,304.000000 1.000000,199.000000 
M75.977432,219.799484 
	C79.471359,228.546539 84.739799,236.023087 92.225975,242.730148 
	C99.435997,247.165390 106.646019,251.600632 113.959778,256.876465 
	C113.768265,258.317230 113.598633,259.761322 113.381676,261.198242 
	C111.982399,270.465546 110.572784,279.731293 109.025955,289.846985 
	C108.575890,292.833008 108.125824,295.819031 107.670624,298.839203 
	C105.223610,298.959534 103.110069,299.063446 100.068588,299.031311 
	C94.613663,299.020691 89.143387,299.264404 83.707657,298.936035 
	C76.699715,298.512665 71.257500,303.602509 70.140556,309.272705 
	C68.856636,315.790497 71.393677,322.661407 78.834930,325.009644 
	C85.889069,325.284027 92.943214,325.558441 100.878838,325.972321 
	C103.135391,325.972321 105.391945,325.972321 107.780106,325.972321 
	C108.290329,329.295013 108.728127,332.145996 109.026947,335.866180 
	C109.740250,340.910156 110.453552,345.954132 111.032349,351.812012 
	C112.004883,355.909851 112.977417,360.007690 113.990791,364.921661 
	C115.291565,369.630280 116.592339,374.338867 117.979759,379.854950 
	C119.471947,384.882660 120.964134,389.910400 122.449348,394.914642 
	C122.192505,395.199432 122.007530,395.608368 121.742012,395.669922 
	C102.230034,400.194183 87.864410,411.818848 78.321854,428.949829 
	C74.632645,435.572815 73.476135,443.606598 70.758850,451.751068 
	C70.525482,456.488770 69.767365,461.283691 70.275520,465.940491 
	C70.537750,468.343567 72.636169,470.994690 74.630821,472.668945 
	C79.085579,476.408051 84.243484,476.738556 89.529579,474.133270 
	C95.100349,471.387634 96.944572,466.351288 96.921318,460.775391 
	C96.837807,440.755219 113.859848,422.940063 134.628830,421.155060 
	C137.382904,425.118896 140.136978,429.082733 143.018967,433.746948 
	C145.999939,437.873505 148.980896,442.000061 152.240128,446.727325 
	C154.478806,449.188782 156.717484,451.650269 159.227936,454.711121 
	C161.471039,456.845520 163.714127,458.979919 166.231644,461.715118 
	C168.827347,464.106720 171.423065,466.498322 174.635315,469.165924 
	C177.054535,471.127106 179.473770,473.088257 182.234360,475.653046 
	C185.142029,477.473572 188.049683,479.294128 191.302719,481.713165 
	C194.851913,483.510620 198.401093,485.308105 202.309998,487.715149 
	C208.859253,490.181122 215.408524,492.647095 222.376892,495.748047 
	C230.584137,497.110107 238.791367,498.472137 247.845352,499.974304 
	C250.767426,500.316101 253.732147,501.154572 256.603699,500.907990 
	C265.748810,500.122681 274.859222,498.933685 284.745728,497.807800 
	C292.509735,494.913544 300.273712,492.019257 308.763031,489.002228 
	C321.347076,483.194122 332.840485,475.617920 343.041748,466.327698 
	C356.499268,454.072021 368.076447,440.193542 377.106506,424.253448 
	C378.033936,422.616302 381.251678,420.877380 382.912659,421.270905 
	C399.970581,425.312347 411.762665,435.244080 415.986023,452.796814 
	C417.048615,457.213135 417.166199,461.849243 418.063995,466.314758 
	C419.186584,471.898499 426.324860,477.025665 431.852081,475.907013 
	C439.280701,474.403625 443.478851,471.208252 443.946106,464.001404 
	C444.844635,450.142273 441.196198,437.242554 433.799866,425.679932 
	C424.999451,411.922241 413.095306,401.726593 396.340698,396.832214 
	C394.619141,396.198090 392.897583,395.563934 391.254639,394.958771 
	C391.863831,393.043732 392.348816,391.519165 393.216705,389.331055 
	C394.559845,385.022888 396.212311,380.783264 397.184814,376.393005 
	C399.568512,365.632050 401.638550,354.801575 403.974945,343.151855 
	C404.732056,337.438385 405.489166,331.724915 406.269562,325.835632 
	C410.355377,325.835632 413.678711,325.835632 417.928650,325.969543 
	C422.064606,325.979218 426.201294,326.042603 430.336365,325.986328 
	C436.944214,325.896393 441.950653,322.348572 443.774109,316.567047 
	C445.510773,311.060730 443.272675,305.089233 437.302277,300.799438 
	C435.644165,300.201721 433.999390,299.138794 432.325500,299.090759 
	C426.555634,298.925079 420.775635,299.113708 414.101868,299.033478 
	C411.525879,299.033478 408.949890,299.033478 406.474762,299.033478 
	C405.598602,293.929016 404.822998,289.410339 404.008484,284.003693 
	C403.377106,279.655273 402.745728,275.306824 402.021729,270.110321 
	C401.292236,266.406891 400.562744,262.703461 399.973083,258.237091 
	C400.604736,257.185883 400.999146,255.530243 401.904022,255.175018 
	C413.686493,250.549438 423.123718,242.919708 430.592407,232.851807 
	C437.389587,223.689026 442.408234,213.732132 443.237061,201.248184 
	C444.541992,194.872086 445.052521,188.590179 440.712677,182.232544 
	C439.758514,181.610519 438.851349,180.896622 437.842865,180.380753 
	C428.425995,175.563812 420.357361,179.191650 417.910889,189.509369 
	C416.384064,195.948547 415.213165,202.472137 413.281616,209.305542 
	C408.943451,218.633224 401.943054,225.323990 392.149841,229.956863 
	C391.044037,228.304886 389.938263,226.652908 388.721802,224.288437 
	C387.187714,221.179489 385.653656,218.070541 384.021576,214.210144 
	C381.364716,209.438751 378.707855,204.667374 375.985107,199.181412 
	C372.837982,194.287003 369.690857,189.392593 366.237640,184.022141 
	C352.783173,213.642166 331.960114,233.840347 303.216797,247.002365 
	C291.672302,252.145660 279.459656,254.648346 266.106323,256.032562 
	C258.109436,256.007019 250.112534,255.981491 241.654953,255.268661 
	C235.827820,254.234360 230.000671,253.200043 223.534622,251.939102 
	C220.370575,250.921356 217.206543,249.903610 213.687180,248.269608 
	C210.160248,246.829636 206.633331,245.389664 202.765442,243.335175 
	C198.208099,240.524109 193.650757,237.713043 188.775681,234.284180 
	C184.554077,231.174210 180.332458,228.064255 175.827515,224.342224 
	C171.496216,219.560440 167.164932,214.778671 162.758713,209.322784 
	C157.590210,201.362442 152.421707,193.402084 147.051529,185.131119 
	C136.271011,198.759308 129.055649,214.420227 122.215393,230.801605 
	C117.631851,227.820206 113.838058,225.352493 109.768517,222.274094 
	C104.030685,216.169281 99.525177,209.373306 97.653130,200.190704 
	C97.098289,196.025833 96.745743,191.821228 95.937843,187.706039 
	C94.908501,182.462875 88.543556,177.790085 83.244545,178.036713 
	C76.916557,178.331253 70.508224,182.900131 70.118317,188.336594 
	C69.353310,199.002853 70.464867,209.469131 75.977432,219.799484 
M175.988571,86.725853 
	C175.523224,88.772728 175.490860,91.055809 174.523605,92.828896 
	C167.173599,106.302559 163.622452,120.731339 163.022629,136.902039 
	C164.310181,145.615891 165.597733,154.329758 166.980347,163.827515 
	C169.280228,169.569778 171.580109,175.312027 173.994217,181.767776 
	C176.292969,185.195236 178.591721,188.622681 181.009048,192.537689 
	C181.064911,192.695328 181.120789,192.852982 181.138901,193.530014 
	C181.415558,193.725067 181.692215,193.920105 182.237534,194.732605 
	C185.455933,198.171692 188.674347,201.610779 192.176086,205.668243 
	C197.456497,209.715805 202.736923,213.763382 208.650665,218.152130 
	C215.099472,221.045700 221.548279,223.939285 228.690262,227.215256 
	C234.025757,228.469193 239.305450,230.165207 244.713058,230.848053 
	C249.743347,231.483261 254.909943,231.038956 260.937408,231.015472 
	C264.270020,230.988617 267.687103,231.435913 270.921783,230.859482 
	C295.582947,226.464706 316.161377,214.991440 331.529724,194.930023 
	C343.923767,178.751205 350.226807,160.356384 350.967590,139.091965 
	C350.789978,128.798813 349.868927,118.632492 345.946106,108.235794 
	C342.908264,101.823532 339.870422,95.411270 337.142670,88.361015 
	C341.480988,81.743240 345.816711,75.123772 350.158203,68.508095 
	C357.199219,57.778851 364.502197,47.208191 371.138000,36.234043 
	C373.270355,32.707565 373.646729,28.119307 374.746857,23.320370 
	C369.246979,10.398967 355.935608,9.827801 348.361115,21.951584 
	C338.888245,37.113983 328.716461,51.839710 318.869598,66.718864 
	C316.498016,65.038620 314.270630,63.460518 311.712952,61.277821 
	C308.194275,59.162506 304.675568,57.047195 300.814453,54.262028 
	C299.775787,53.904785 298.732483,53.560501 297.699280,53.188087 
	C292.814758,51.427483 287.932953,49.659191 282.636108,47.233391 
	C273.576172,44.831272 264.424347,43.256981 254.092697,44.029465 
	C247.202988,44.983952 240.221603,45.514526 233.442444,46.980324 
	C218.899475,50.124809 206.487991,57.644909 194.748398,66.255867 
	C184.704315,50.884380 174.825699,35.400578 164.514786,20.210215 
	C161.443054,15.684855 156.810684,12.037302 150.803345,13.207678 
	C140.019760,15.308586 135.888535,26.290718 142.022736,35.516903 
	C145.984863,41.476181 149.843201,47.504814 153.834930,53.443962 
	C161.151962,64.330681 168.533234,75.174217 175.988571,86.725853 
z"/>
<path fill="#494DD9" opacity="1.000000" stroke="none" 
	d="
M133.999359,420.834229 
	C113.859848,422.940063 96.837807,440.755219 96.921318,460.775391 
	C96.944572,466.351288 95.100349,471.387634 89.529579,474.133270 
	C84.243484,476.738556 79.085579,476.408051 74.630821,472.668945 
	C72.636169,470.994690 70.537750,468.343567 70.275520,465.940491 
	C69.767365,461.283691 70.525482,456.488770 71.285553,451.279785 
	C74.324875,448.922180 77.109062,447.307831 79.310570,445.109894 
	C140.640076,383.879181 201.915314,322.594116 263.162842,261.281342 
	C264.653809,259.788757 265.728851,257.880646 266.997864,256.166321 
	C279.459656,254.648346 291.672302,252.145660 303.513977,247.285278 
	C301.861908,250.224243 300.224731,253.195114 297.913757,255.486359 
	C280.076935,273.170990 262.003937,290.617889 244.205231,308.340393 
	C208.821945,343.572235 173.550201,378.916260 138.309433,414.290649 
	C136.503220,416.103729 135.419464,418.636536 133.999359,420.834229 
z"/>
<path fill="#5B16D4" opacity="1.000000" stroke="none" 
	d="
M417.002045,325.835632 
	C413.678711,325.835632 410.355377,325.835632 406.269562,325.835632 
	C405.489166,331.724915 404.732056,337.438385 403.557861,343.611206 
	C401.270325,345.370636 399.171661,346.436981 397.564148,348.006439 
	C378.869598,366.258179 360.153259,384.489471 341.630615,402.915100 
	C311.056335,433.329224 280.604034,463.866119 250.174866,494.425507 
	C248.746307,495.860138 248.040833,498.014832 246.998611,499.834167 
	C238.791367,498.472137 230.584137,497.110107 222.256805,495.092651 
	C223.695618,492.520386 225.098740,490.447876 226.835922,488.709137 
	C288.033936,427.457306 349.268860,366.242310 410.460388,304.983978 
	C412.185516,303.256989 413.495758,301.115570 414.999481,299.167419 
	C420.775635,299.113708 426.555634,298.925079 432.325500,299.090759 
	C433.999390,299.138794 435.644165,300.201721 437.616150,301.329071 
	C436.527710,303.832092 435.300812,305.963501 433.691162,307.750122 
	C428.200867,313.844147 422.575714,319.816711 417.002045,325.835632 
z"/>
<path fill="#4B45D8" opacity="1.000000" stroke="none" 
	d="
M134.314087,420.994629 
	C135.419464,418.636536 136.503220,416.103729 138.309433,414.290649 
	C173.550201,378.916260 208.821945,343.572235 244.205231,308.340393 
	C262.003937,290.617889 280.076935,273.170990 297.913757,255.486359 
	C300.224731,253.195114 301.861908,250.224243 303.886810,247.223389 
	C331.960114,233.840347 352.783173,213.642166 366.237640,184.022141 
	C369.690857,189.392593 372.837982,194.287003 375.864929,199.848633 
	C373.973419,202.700272 372.385895,205.069321 370.404114,207.042267 
	C310.456879,266.721924 250.463379,326.355011 190.496246,386.014648 
	C176.210144,400.227448 162.000198,414.516785 147.729858,428.745483 
	C146.204208,430.266693 144.508102,431.616974 142.891052,433.046539 
	C140.136978,429.082733 137.382904,425.118896 134.314087,420.994629 
z"/>
<path fill="#581FD5" opacity="1.000000" stroke="none" 
	d="
M414.550659,299.100433 
	C413.495758,301.115570 412.185516,303.256989 410.460388,304.983978 
	C349.268860,366.242310 288.033936,427.457306 226.835922,488.709137 
	C225.098740,490.447876 223.695618,492.520386 222.047256,494.775146 
	C215.408524,492.647095 208.859253,490.181122 202.311218,487.123108 
	C203.547256,485.181793 204.727737,483.777649 206.024841,482.491089 
	C244.566055,444.263275 283.160675,406.089142 321.655334,367.814514 
	C348.113037,341.508026 374.438141,315.068146 400.805115,288.670502 
	C401.974670,287.499603 402.970581,286.155212 404.047394,284.891663 
	C404.822998,289.410339 405.598602,293.929016 406.474762,299.033478 
	C408.949890,299.033478 411.525879,299.033478 414.550659,299.100433 
z"/>
<path fill="#5D0ED3" opacity="1.000000" stroke="none" 
	d="
M247.421982,499.904236 
	C248.040833,498.014832 248.746307,495.860138 250.174866,494.425507 
	C280.604034,463.866119 311.056335,433.329224 341.630615,402.915100 
	C360.153259,384.489471 378.869598,366.258179 397.564148,348.006439 
	C399.171661,346.436981 401.270325,345.370636 403.487793,344.034851 
	C401.638550,354.801575 399.568512,365.632050 397.184814,376.393005 
	C396.212311,380.783264 394.559845,385.022888 392.678253,389.699219 
	C390.621918,391.015930 388.897980,391.745575 387.619751,392.948669 
	C379.621033,400.477295 371.597107,407.986298 363.812439,415.733826 
	C338.181732,441.242126 312.630402,466.830353 287.130707,492.469604 
	C285.703766,493.904297 285.015259,496.073364 283.983063,497.900696 
	C274.859222,498.933685 265.748810,500.122681 256.603699,500.907990 
	C253.732147,501.154572 250.767426,500.316101 247.421982,499.904236 
z"/>
<path fill="#4D3FD8" opacity="1.000000" stroke="none" 
	d="
M142.955017,433.396729 
	C144.508102,431.616974 146.204208,430.266693 147.729858,428.745483 
	C162.000198,414.516785 176.210144,400.227448 190.496246,386.014648 
	C250.463379,326.355011 310.456879,266.721924 370.404114,207.042267 
	C372.385895,205.069321 373.973419,202.700272 375.897858,200.205933 
	C378.707855,204.667374 381.364716,209.438751 383.705292,214.623169 
	C381.493347,216.290268 379.318207,217.264465 377.742157,218.838531 
	C303.663269,292.825195 229.631790,366.859375 155.636673,440.929871 
	C154.158722,442.409363 153.175751,444.383331 151.961853,446.126617 
	C148.980896,442.000061 145.999939,437.873505 142.955017,433.396729 
z"/>
<path fill="#4655DA" opacity="1.000000" stroke="none" 
	d="
M266.552094,256.099426 
	C265.728851,257.880646 264.653809,259.788757 263.162842,261.281342 
	C201.915314,322.594116 140.640076,383.879181 79.310570,445.109894 
	C77.109062,447.307831 74.324875,448.922180 71.489014,450.903076 
	C73.476135,443.606598 74.632645,435.572815 78.321854,428.949829 
	C87.864410,411.818848 102.230034,400.194183 121.742012,395.669922 
	C122.007530,395.608368 122.192505,395.199432 122.449348,394.914642 
	C120.964134,389.910400 119.471947,384.882660 118.223862,379.270538 
	C119.345833,377.922791 120.273628,377.209412 121.094406,376.388947 
	C159.838791,337.660583 198.570633,298.919708 237.322144,260.198517 
	C238.828766,258.693054 240.513763,257.366089 242.115646,255.955963 
	C250.112534,255.981491 258.109436,256.007019 266.552094,256.099426 
z"/>
<path fill="#5132D7" opacity="1.000000" stroke="none" 
	d="
M174.018768,468.889923 
	C171.423065,466.498322 168.827347,464.106720 166.183990,461.076721 
	C167.695251,458.521210 169.094009,456.443054 170.836411,454.710480 
	C219.704071,406.117859 268.632507,357.586304 317.492188,308.985657 
	C341.573303,285.032227 365.576141,260.999512 389.474854,236.864487 
	C391.185547,235.136887 391.748810,232.273087 392.845581,229.937561 
	C401.943054,225.323990 408.943451,218.633224 413.923462,209.056702 
	C422.765137,201.305237 430.992310,193.831970 439.126617,186.258911 
	C440.038788,185.409698 440.424683,183.995224 441.054626,182.842865 
	C445.052521,188.590179 444.541992,194.872086 442.687683,201.659271 
	C440.267151,203.372070 438.154175,204.429962 436.559784,206.010864 
	C386.895386,255.255875 337.235413,304.505554 287.675354,353.855530 
	C250.969223,390.406006 214.394882,427.088898 177.804459,463.755341 
	C176.319061,465.243835 175.270737,467.168488 174.018768,468.889923 
z"/>
<path fill="#3C71DD" opacity="1.000000" stroke="none" 
	d="
M208.017334,217.810944 
	C202.736923,213.763382 197.456497,209.715805 192.321762,205.178070 
	C193.463867,203.806427 194.506546,202.971619 195.450104,202.036758 
	C233.432663,164.403366 271.434174,126.789032 309.369476,89.108009 
	C328.992615,69.616386 348.490845,49.999027 368.061401,30.454353 
	C370.263336,28.255327 372.568939,26.160133 374.826477,24.016804 
	C373.646729,28.119307 373.270355,32.707565 371.138000,36.234043 
	C364.502197,47.208191 357.199219,57.778851 350.158203,68.508095 
	C345.816711,75.123772 341.480988,81.743240 336.669464,88.774658 
	C334.657043,90.432671 332.989929,91.548973 331.597229,92.940041 
	C291.655914,132.835144 251.734970,172.750687 211.851944,212.704056 
	C210.362823,214.195801 209.286179,216.099304 208.017334,217.810944 
z"/>
<path fill="#3A78DD" opacity="1.000000" stroke="none" 
	d="
M374.786682,23.668583 
	C372.568939,26.160133 370.263336,28.255327 368.061401,30.454353 
	C348.490845,49.999027 328.992615,69.616386 309.369476,89.108009 
	C271.434174,126.789032 233.432663,164.403366 195.450104,202.036758 
	C194.506546,202.971619 193.463867,203.806427 192.180099,204.868896 
	C188.674347,201.610779 185.455933,198.171692 181.985260,194.229919 
	C181.568329,193.472214 181.382889,193.233337 181.176651,193.010620 
	C181.120789,192.852982 181.064911,192.695328 181.242615,192.116241 
	C183.914551,189.699722 186.543823,187.895920 188.762939,185.681168 
	C228.459930,146.062271 268.110443,106.396751 307.753082,66.723412 
	C309.274384,65.200935 310.617218,63.500126 312.043213,61.882416 
	C314.270630,63.460518 316.498016,65.038620 318.869598,66.718864 
	C328.716461,51.839710 338.888245,37.113983 348.361115,21.951584 
	C355.935608,9.827801 369.246979,10.398967 374.786682,23.668583 
z"/>
<path fill="#532DD6" opacity="1.000000" stroke="none" 
	d="
M174.327026,469.027924 
	C175.270737,467.168488 176.319061,465.243835 177.804459,463.755341 
	C214.394882,427.088898 250.969223,390.406006 287.675354,353.855530 
	C337.235413,304.505554 386.895386,255.255875 436.559784,206.010864 
	C438.154175,204.429962 440.267151,203.372070 442.485138,202.034409 
	C442.408234,213.732132 437.389587,223.689026 430.592407,232.851807 
	C423.123718,242.919708 413.686493,250.549438 401.904022,255.175018 
	C400.999146,255.530243 400.604736,257.185883 399.585022,258.713013 
	C397.892212,260.198578 396.465149,261.084473 395.300568,262.235870 
	C362.012695,295.145752 328.681824,328.012665 295.504333,361.033630 
	C259.953796,396.416382 224.547333,431.943939 189.094391,467.424652 
	C186.624298,469.896637 184.290283,472.504639 181.893005,475.049408 
	C179.473770,473.088257 177.054535,471.127106 174.327026,469.027924 
z"/>
<path fill="#4260DB" opacity="1.000000" stroke="none" 
	d="
M345.833130,108.997589 
	C349.868927,118.632492 350.789978,128.798813 350.582733,139.639771 
	C348.894623,141.196121 347.463806,142.076889 346.306793,143.231903 
	C318.620911,170.869751 290.953156,198.525803 263.336273,226.232529 
	C261.978546,227.594650 261.111877,229.446228 260.016541,231.069885 
	C254.909943,231.038956 249.743347,231.483261 244.713058,230.848053 
	C239.305450,230.165207 234.025757,228.469193 228.379852,226.677155 
	C229.250229,224.388962 230.184311,222.392868 231.648026,220.924881 
	C264.047058,188.431213 296.453217,155.944168 329.003082,123.601860 
	C334.260040,118.378441 340.205780,113.848228 345.833130,108.997589 
z"/>
<path fill="#5625D5" opacity="1.000000" stroke="none" 
	d="
M404.027954,284.447693 
	C402.970581,286.155212 401.974670,287.499603 400.805115,288.670502 
	C374.438141,315.068146 348.113037,341.508026 321.655334,367.814514 
	C283.160675,406.089142 244.566055,444.263275 206.024841,482.491089 
	C204.727737,483.777649 203.547256,485.181793 202.131348,486.818359 
	C198.401093,485.308105 194.851913,483.510620 191.219528,481.075867 
	C192.107391,479.109680 192.922241,477.624695 194.071869,476.474243 
	C261.435181,409.060913 328.817657,341.666718 396.268158,274.340637 
	C397.808014,272.803650 400.147705,272.067902 402.114319,270.958405 
	C402.745728,275.306824 403.377106,279.655273 404.027954,284.447693 
z"/>
<path fill="#4F3AD7" opacity="1.000000" stroke="none" 
	d="
M152.100983,446.426971 
	C153.175751,444.383331 154.158722,442.409363 155.636673,440.929871 
	C229.631790,366.859375 303.663269,292.825195 377.742157,218.838531 
	C379.318207,217.264465 381.493347,216.290268 383.754303,214.998901 
	C385.653656,218.070541 387.187714,221.179489 388.458984,224.739029 
	C386.774292,226.316330 385.229614,227.319046 383.948303,228.587784 
	C345.498901,266.659821 307.016388,304.698700 268.665405,342.869751 
	C233.608597,377.762085 198.686569,412.789886 163.757202,447.809906 
	C161.908813,449.663116 160.545364,452.000000 158.956161,454.111725 
	C156.717484,451.650269 154.478806,449.188782 152.100983,446.426971 
z"/>
<path fill="#3E6BDC" opacity="1.000000" stroke="none" 
	d="
M345.889618,108.616684 
	C340.205780,113.848228 334.260040,118.378441 329.003082,123.601860 
	C296.453217,155.944168 264.047058,188.431213 231.648026,220.924881 
	C230.184311,222.392868 229.250229,224.388962 228.033264,226.485962 
	C221.548279,223.939285 215.099472,221.045700 208.334000,217.981537 
	C209.286179,216.099304 210.362823,214.195801 211.851944,212.704056 
	C251.734970,172.750687 291.655914,132.835144 331.597229,92.940041 
	C332.989929,91.548973 334.657043,90.432671 336.514404,89.093658 
	C339.870422,95.411270 342.908264,101.823532 345.889618,108.616684 
z"/>
<path fill="#338CDF" opacity="1.000000" stroke="none" 
	d="
M166.885300,163.043610 
	C165.597733,154.329758 164.310181,145.615891 163.412827,136.355316 
	C165.105072,134.802444 166.534058,133.923691 167.690613,132.771484 
	C196.191299,104.377670 224.669876,75.961617 253.108185,47.505341 
	C253.979355,46.633625 254.377991,45.289673 254.996918,44.165886 
	C264.424347,43.256981 273.576172,44.831272 282.661987,47.850685 
	C282.042206,49.226238 281.445618,50.033573 280.743805,50.735733 
	C244.300995,87.195786 207.856995,123.654655 171.365494,160.065933 
	C170.120880,161.307816 168.389694,162.062073 166.885300,163.043610 
z"/>
<path fill="#5036D7" opacity="1.000000" stroke="none" 
	d="
M159.092041,454.411438 
	C160.545364,452.000000 161.908813,449.663116 163.757202,447.809906 
	C198.686569,412.789886 233.608597,377.762085 268.665405,342.869751 
	C307.016388,304.698700 345.498901,266.659821 383.948303,228.587784 
	C385.229614,227.319046 386.774292,226.316330 388.514343,225.095276 
	C389.938263,226.652908 391.044037,228.304886 392.497681,229.947205 
	C391.748810,232.273087 391.185547,235.136887 389.474854,236.864487 
	C365.576141,260.999512 341.573303,285.032227 317.492188,308.985657 
	C268.632507,357.586304 219.704071,406.117859 170.836411,454.710480 
	C169.094009,456.443054 167.695251,458.521210 166.046783,460.776306 
	C163.714127,458.979919 161.471039,456.845520 159.092041,454.411438 
z"/>
<path fill="#6200D2" opacity="1.000000" stroke="none" 
	d="
M396.999237,397.166992 
	C413.095306,401.726593 424.999451,411.922241 433.799866,425.679932 
	C441.196198,437.242554 444.844635,450.142273 443.946106,464.001404 
	C443.478851,471.208252 439.280701,474.403625 431.852081,475.907013 
	C426.324860,477.025665 419.186584,471.898499 418.063995,466.314758 
	C417.166199,461.849243 417.048615,457.213135 415.986023,452.796814 
	C411.762665,435.244080 399.970581,425.312347 382.912659,421.270905 
	C381.251678,420.877380 378.033936,422.616302 377.106506,424.253448 
	C368.076447,440.193542 356.499268,454.072021 343.041748,466.327698 
	C332.840485,475.617920 321.347076,483.194122 308.475220,488.723511 
	C309.262756,486.992310 310.175629,485.377899 311.437683,484.111450 
	C331.076538,464.403473 350.715729,444.695435 370.456909,425.090179 
	C378.011719,417.587402 385.892822,410.413452 393.460876,402.923553 
	C395.016083,401.384369 395.838867,399.105103 396.999237,397.166992 
z"/>
<path fill="#3684DE" opacity="1.000000" stroke="none" 
	d="
M166.932831,163.435577 
	C168.389694,162.062073 170.120880,161.307816 171.365494,160.065933 
	C207.856995,123.654655 244.300995,87.195786 280.743805,50.735733 
	C281.445618,50.033573 282.042206,49.226238 282.869049,48.180809 
	C287.932953,49.659191 292.814758,51.427483 297.699280,53.188087 
	C298.732483,53.560501 299.775787,53.904785 300.694458,54.777782 
	C298.988770,56.756584 297.349915,58.166454 295.825165,59.690430 
	C256.902008,98.593842 217.994202,137.512650 179.065491,176.410507 
	C177.426590,178.048111 175.612473,179.510345 173.879990,181.054291 
	C171.580109,175.312027 169.280228,169.569778 166.932831,163.435577 
z"/>
<path fill="#5429D6" opacity="1.000000" stroke="none" 
	d="
M402.068024,270.534363 
	C400.147705,272.067902 397.808014,272.803650 396.268158,274.340637 
	C328.817657,341.666718 261.435181,409.060913 194.071869,476.474243 
	C192.922241,477.624695 192.107391,479.109680 191.046844,480.776611 
	C188.049683,479.294128 185.142029,477.473572 182.063675,475.351227 
	C184.290283,472.504639 186.624298,469.896637 189.094391,467.424652 
	C224.547333,431.943939 259.953796,396.416382 295.504333,361.033630 
	C328.681824,328.012665 362.012695,295.145752 395.300568,262.235870 
	C396.465149,261.084473 397.892212,260.198578 399.515076,259.094482 
	C400.562744,262.703461 401.292236,266.406891 402.068024,270.534363 
z"/>
<path fill="#3096E0" opacity="1.000000" stroke="none" 
	d="
M254.544800,44.097675 
	C254.377991,45.289673 253.979355,46.633625 253.108185,47.505341 
	C224.669876,75.961617 196.191299,104.377670 167.690613,132.771484 
	C166.534058,133.923691 165.105072,134.802444 163.484650,135.902328 
	C163.622452,120.731339 167.173599,106.302559 174.523605,92.828896 
	C175.490860,91.055809 175.523224,88.772728 176.225433,86.200150 
	C182.652176,79.411026 188.842041,73.147614 195.031906,66.884201 
	C206.487991,57.644909 218.899475,50.124809 233.442444,46.980324 
	C240.221603,45.514526 247.202988,44.983952 254.544800,44.097675 
z"/>
<path fill="#387EDE" opacity="1.000000" stroke="none" 
	d="
M173.937103,181.411041 
	C175.612473,179.510345 177.426590,178.048111 179.065491,176.410507 
	C217.994202,137.512650 256.902008,98.593842 295.825165,59.690430 
	C297.349915,58.166454 298.988770,56.756584 300.865662,55.112709 
	C304.675568,57.047195 308.194275,59.162506 311.878082,61.580116 
	C310.617218,63.500126 309.274384,65.200935 307.753082,66.723412 
	C268.110443,106.396751 228.459930,146.062271 188.762939,185.681168 
	C186.543823,187.895920 183.914551,189.699722 181.183319,191.872467 
	C178.591721,188.622681 176.292969,185.195236 173.937103,181.411041 
z"/>
<path fill="#4655DA" opacity="1.000000" stroke="none" 
	d="
M260.476990,231.042679 
	C261.111877,229.446228 261.978546,227.594650 263.336273,226.232529 
	C290.953156,198.525803 318.620911,170.869751 346.306793,143.231903 
	C347.463806,142.076889 348.894623,141.196121 350.516022,140.092590 
	C350.226807,160.356384 343.923767,178.751205 331.529724,194.930023 
	C316.161377,214.991440 295.582947,226.464706 270.921783,230.859482 
	C267.687103,231.435913 264.270020,230.988617 260.476990,231.042679 
z"/>
<path fill="#435CDB" opacity="1.000000" stroke="none" 
	d="
M241.885300,255.612305 
	C240.513763,257.366089 238.828766,258.693054 237.322144,260.198517 
	C198.570633,298.919708 159.838791,337.660583 121.094406,376.388947 
	C120.273628,377.209412 119.345833,377.922791 118.180534,378.866821 
	C116.592339,374.338867 115.291565,369.630280 114.151497,364.226379 
	C115.781792,361.947113 117.195557,360.306793 118.729187,358.787384 
	C152.305283,325.522919 185.912979,292.290283 219.434296,258.970764 
	C221.363113,257.053589 222.609543,254.449921 224.173538,252.165741 
	C230.000671,253.200043 235.827820,254.234360 241.885300,255.612305 
z"/>
<path fill="#3C71DD" opacity="1.000000" stroke="none" 
	d="
M176.110855,224.954285 
	C180.332458,228.064255 184.554077,231.174210 188.743958,234.875000 
	C182.488159,241.463974 176.178162,247.375870 170.055557,253.475830 
	C148.459335,274.992218 126.893929,296.539948 105.422089,318.180206 
	C103.249634,320.369720 101.788551,323.265045 99.997345,325.832825 
	C92.943214,325.558441 85.889069,325.284027 78.511108,324.602844 
	C83.258682,318.830017 88.379578,313.509613 93.381310,308.079437 
	C96.026779,305.207367 98.464828,302.144257 100.996521,299.167389 
	C103.110069,299.063446 105.223610,298.959534 107.670624,298.839203 
	C108.125824,295.819031 108.575890,292.833008 109.414558,289.328247 
	C111.339439,287.568970 113.000488,286.453796 114.392601,285.068390 
	C127.817856,271.707947 141.113922,258.216614 154.625488,244.944473 
	C161.601562,238.092010 168.937515,231.605911 176.110855,224.954285 
z"/>
<path fill="#3E6BDC" opacity="1.000000" stroke="none" 
	d="
M100.438095,325.902588 
	C101.788551,323.265045 103.249634,320.369720 105.422089,318.180206 
	C126.893929,296.539948 148.459335,274.992218 170.055557,253.475830 
	C176.178162,247.375870 182.488159,241.463974 188.902817,235.183899 
	C193.650757,237.713043 198.208099,240.524109 202.648682,243.823486 
	C200.946365,245.782761 199.311447,247.204285 197.782608,248.731964 
	C170.671906,275.822296 143.599213,302.950745 116.423248,329.975403 
	C114.370018,332.017212 111.601791,333.339996 109.165924,334.997009 
	C108.728127,332.145996 108.290329,329.295013 107.780106,325.972321 
	C105.391945,325.972321 103.135391,325.972321 100.438095,325.902588 
z"/>
<path fill="#29AAE2" opacity="1.000000" stroke="none" 
	d="
M194.890152,66.570038 
	C188.842041,73.147614 182.652176,79.411026 176.175018,85.855103 
	C168.533234,75.174217 161.151962,64.330681 153.834930,53.443962 
	C149.843201,47.504814 145.984863,41.476181 142.022736,35.516903 
	C135.888535,26.290718 140.019760,15.308586 150.803345,13.207678 
	C156.810684,12.037302 161.443054,15.684855 164.514786,20.210215 
	C174.825699,35.400578 184.704315,50.884380 194.890152,66.570038 
z"/>
<path fill="#4164DB" opacity="1.000000" stroke="none" 
	d="
M109.096436,335.431580 
	C111.601791,333.339996 114.370018,332.017212 116.423248,329.975403 
	C143.599213,302.950745 170.671906,275.822296 197.782608,248.731964 
	C199.311447,247.204285 200.946365,245.782761 202.819153,244.130737 
	C206.633331,245.389664 210.160248,246.829636 213.775391,248.915710 
	C212.659729,251.123764 211.622818,252.856934 210.224915,254.219894 
	C201.185379,263.033356 191.951813,271.650055 182.997482,280.548218 
	C160.820694,302.585846 138.773666,324.754028 116.623695,346.818756 
	C115.014175,348.422089 112.995377,349.614594 111.166855,350.998108 
	C110.453552,345.954132 109.740250,340.910156 109.096436,335.431580 
z"/>
<path fill="#3A78DD" opacity="1.000000" stroke="none" 
	d="
M175.969177,224.648254 
	C168.937515,231.605911 161.601562,238.092010 154.625488,244.944473 
	C141.113922,258.216614 127.817856,271.707947 114.392601,285.068390 
	C113.000488,286.453796 111.339439,287.568970 109.484863,288.903534 
	C110.572784,279.731293 111.982399,270.465546 113.381676,261.198242 
	C113.598633,259.761322 113.768265,258.317230 114.200485,256.280273 
	C128.258392,241.991882 142.031815,228.254929 155.942856,214.658768 
	C157.894379,212.751404 160.520020,211.533768 162.833633,209.996887 
	C167.164932,214.778671 171.496216,219.560440 175.969177,224.648254 
z"/>
<path fill="#3782DE" opacity="1.000000" stroke="none" 
	d="
M162.796173,209.659836 
	C160.520020,211.533768 157.894379,212.751404 155.942856,214.658768 
	C142.031815,228.254929 128.258392,241.991882 114.148621,255.859955 
	C106.646019,251.600632 99.435997,247.165390 92.283211,242.141663 
	C98.241722,235.330383 104.142990,229.107574 110.044258,222.884781 
	C113.838058,225.352493 117.631851,227.820206 122.215393,230.801605 
	C129.055649,214.420227 136.271011,198.759308 147.051529,185.131119 
	C152.421707,193.402084 157.590210,201.362442 162.796173,209.659836 
z"/>
<path fill="#6006D3" opacity="1.000000" stroke="none" 
	d="
M396.669983,396.999603 
	C395.838867,399.105103 395.016083,401.384369 393.460876,402.923553 
	C385.892822,410.413452 378.011719,417.587402 370.456909,425.090179 
	C350.715729,444.695435 331.076538,464.403473 311.437683,484.111450 
	C310.175629,485.377899 309.262756,486.992310 308.112549,488.784912 
	C300.273712,492.019257 292.509735,494.913544 284.364380,497.854248 
	C285.015259,496.073364 285.703766,493.904297 287.130707,492.469604 
	C312.630402,466.830353 338.181732,441.242126 363.812439,415.733826 
	C371.597107,407.986298 379.621033,400.477295 387.619751,392.948669 
	C388.897980,391.745575 390.621918,391.015930 392.486816,390.031006 
	C392.348816,391.519165 391.863831,393.043732 391.254639,394.958771 
	C392.897583,395.563934 394.619141,396.198090 396.669983,396.999603 
z"/>
<path fill="#4260DB" opacity="1.000000" stroke="none" 
	d="
M111.099609,351.405060 
	C112.995377,349.614594 115.014175,348.422089 116.623695,346.818756 
	C138.773666,324.754028 160.820694,302.585846 182.997482,280.548218 
	C191.951813,271.650055 201.185379,263.033356 210.224915,254.219894 
	C211.622818,252.856934 212.659729,251.123764 213.953049,249.223846 
	C217.206543,249.903610 220.370575,250.921356 223.854080,252.052429 
	C222.609543,254.449921 221.363113,257.053589 219.434296,258.970764 
	C185.912979,292.290283 152.305283,325.522919 118.729187,358.787384 
	C117.195557,360.306793 115.781792,361.947113 114.131073,363.818329 
	C112.977417,360.007690 112.004883,355.909851 111.099609,351.405060 
z"/>
<path fill="#3096E0" opacity="1.000000" stroke="none" 
	d="
M75.885315,219.046158 
	C70.464867,209.469131 69.353310,199.002853 70.118317,188.336594 
	C70.508224,182.900131 76.916557,178.331253 83.244545,178.036713 
	C88.543556,177.790085 94.908501,182.462875 95.937843,187.706039 
	C96.745743,191.821228 97.098289,196.025833 97.397285,200.630569 
	C95.052170,202.589844 92.842003,203.969803 90.897156,205.655807 
	C85.831116,210.047623 80.881424,214.573669 75.885315,219.046158 
z"/>
<path fill="#338CDF" opacity="1.000000" stroke="none" 
	d="
M75.931374,219.422821 
	C80.881424,214.573669 85.831116,210.047623 90.897156,205.655807 
	C92.842003,203.969803 95.052170,202.589844 97.488472,201.034241 
	C99.525177,209.373306 104.030685,216.169281 109.906387,222.579437 
	C104.142990,229.107574 98.241722,235.330383 92.145447,241.831146 
	C84.739799,236.023087 79.471359,228.546539 75.931374,219.422821 
z"/>
<path fill="#3A78DD" opacity="1.000000" stroke="none" 
	d="
M100.532555,299.099365 
	C98.464828,302.144257 96.026779,305.207367 93.381310,308.079437 
	C88.379578,313.509613 83.258682,318.830017 78.092407,324.514191 
	C71.393677,322.661407 68.856636,315.790497 70.140556,309.272705 
	C71.257500,303.602509 76.699715,298.512665 83.707657,298.936035 
	C89.143387,299.264404 94.613663,299.020691 100.532555,299.099365 
z"/>
<path fill="#5036D7" opacity="1.000000" stroke="none" 
	d="
M440.883667,182.537720 
	C440.424683,183.995224 440.038788,185.409698 439.126617,186.258911 
	C430.992310,193.831970 422.765137,201.305237 414.223938,208.882858 
	C415.213165,202.472137 416.384064,195.948547 417.910889,189.509369 
	C420.357361,179.191650 428.425995,175.563812 437.842865,180.380753 
	C438.851349,180.896622 439.758514,181.610519 440.883667,182.537720 
z"/>
<path fill="#5D0ED3" opacity="1.000000" stroke="none" 
	d="
M417.465332,325.902588 
	C422.575714,319.816711 428.200867,313.844147 433.691162,307.750122 
	C435.300812,305.963501 436.527710,303.832092 437.965637,301.511597 
	C443.272675,305.089233 445.510773,311.060730 443.774109,316.567047 
	C441.950653,322.348572 436.944214,325.896393 430.336365,325.986328 
	C426.201294,326.042603 422.064606,325.979218 417.465332,325.902588 
z"/>
<path fill="#387EDE" opacity="1.000000" stroke="none" 
	d="
M181.157776,193.270325 
	C181.382889,193.233337 181.568329,193.472214 181.850937,193.921173 
	C181.692215,193.920105 181.415558,193.725067 181.157776,193.270325 
z"/>
</svg>